<?xml version="1.0" encoding="UTF-8"?><svg id="_ÎÓÈ_1" xmlns="http://www.w3.org/2000/svg" viewBox="0 0 1440 1029.46"><defs><style>.cls-1{fill:#373737;}</style></defs><path class="cls-1" d="m1594.44,183.45c-2.83-1.75-6.39-2.32-9.65-3.36-4.08-1.31-8.48-2.01-12.19-4.01-16.45-8.88-32.83-17.78-51.9-19.73-7.21-.74-8.7.48-9.39,7.11-.2,1.96-1.48,3.81-2.26,5.71-1.83-1-3.64-2.04-5.49-3-4.31-2.26-8.42-5.52-13.01-6.51-9.06-1.96-18.34-2.32-26.49,5.47-1.36-3.19-2.24-5.34-3.18-7.45-4.4-9.91-8.9-12.41-19.53-10.92-4.99.7-10,1.97-14.97,1.84-2.74-.07-6.93-1.87-7.87-4.02-5.05-11.6-9.52-10.43-18.87-8.37-5.33,1.18-9.37.6-12.39-5.28-5.23-10.16-10.65-9.94-16.31,0-.94,1.66-1.81,3.71-1.72,5.54.32,6.65-3.86,7.68-8.94,7.55-3.95-.1-7.99-.09-11.8-.94-7.56-1.69-14.17-1.89-17.11,9.73-5.09-5.88-10.51-9.61-12.09-14.56-2.65-8.29-15.58-16.59-23.5-13-.91.41-1.9,1.38-2.19,2.3-1.95,6.14-6.29,5.49-11.17,4.44-10.45-2.25-21.01-4.02-31.42-6.44-2.93-.68-5.39-3.17-8.26-4.38-1.82-.77-4.01-1.06-5.99-.91-1.44.11-2.8,1.28-4.2,1.98-.34-.42-.69-.85-1.03-1.27,1.61-1.84,2.95-4.05,4.89-5.42,2.67-1.87,6.38-2.52,8.55-4.75,2.13-2.18,4.22-5.87,3.85-8.56-.32-2.36-3.78-5.33-6.4-6.07-3.41-.97-7.36-.02-11.08.14-4.07.18-8.15.39-12.22.59.38-.56.76-1.12,1.14-1.67-1.71-2.77-2.95-7.38-5.21-7.96-6.14-1.57-12.61-1.28-17.7,3.99-1.41,1.46-3.69,2.03-5.48,3.16-1.92,1.2-3.63,2.79-5.63,3.82-2.43,1.26-5.05,2.91-7.62,2.96-4.1.08-8.61-2.39-12.27-1.37-13.91,3.87-27.59,8.58-41.23,13.35-1.73.61-4.08,3.8-3.73,5.18,1.18,4.68-1.6,4.74-4.57,5.04-4.65.48-9.3.91-14.55,1.42,1.7,4.55,2.91,7.78,4.12,11-.49.43-.99.86-1.48,1.3-2.14-1.13-4.44-2.04-6.4-3.42-8.62-6.11-12.11-5.16-16.39,4.59-.39.88-1.08,1.63-2.84,4.22-1.26-3.74-1.92-5.94-2.74-8.08-.64-1.67-1.49-3.25-2.24-4.88-1.27,1.49-3.62,2.99-3.62,4.48.03,7.83.48,15.67,1.13,23.47.53,6.31,2.42,12.61,2.14,18.85-.47,10.48-12.06,17.8-21.53,13.62,2.45-1.39,4.97-2.13,6.43-3.8,2.74-3.15,6.57-6.7,6.88-10.34.63-7.33.19-15.1-1.71-22.18-1.44-5.36-2.47-9.93-.2-15.13,1.34-3.06.67-5.99-3.41-6-5.68-.02-10.97,1.17-13.95,6.9-1.62,3.11-3.29,6.2-5.06,9.23-2.72,4.66-2.67,9.04.55,13.53,2.16,3,3.86,6.33,5.77,9.51-14.21-1.85-24.32-14.45-39.52-10.9.75,2.23,1.4,4.15,2.17,6.43-9.68.87-18.77,1.68-28.26,2.53-4.06-5.59-6.39-6.09-12.87-1.78-4.02,2.67-8.01,5.44-11.72,8.52-7.58,6.29-7.5,6.39-12.25-2.34-.31-.57-.64-1.41-1.14-1.57-2.21-.72-4.76-2.16-6.68-1.61-2.85.81-4.54,3.07-2.45,6.66,2.36,4.05-.33,6.27-3.65,8.32-5.37,3.32-10.43,7.13-15.76,10.5-4.39,2.77-8.8,5.72-13.58,7.62-4.1,1.63-7.25-.71-8.39-5.02-1.02-3.87-1.79-7.81-3.08-13.5,5.27,1.65,9.69,3.01,14.09,4.41,5.7,1.81,13.72-1.47,15.4-6.9,1.9-6.13-3.31-8.03-7.32-9.89-8.55-3.97-17.44-7.23-25.93-11.31-3.29-1.58-5.81-4.7-8.83-6.92-3.24-2.38-6.61-6.35-10.01-6.45-22.99-.67-45.78.03-60.11,22.72-1.63,2.58-4.13,4.59-5.87,7.1-5.98,8.63-12.62,16.94-17.4,26.2-3.34,6.47-6.93,11.3-13.86,13.79-5.43,1.95-11.23,4.67-11.99,11.05-.9,7.51-.75,15.23-.22,22.8.34,4.8,4.27,7.08,8.64,5.11,5.71-2.58,10.93-6.25,16.9-9.76.21.4,1.43,1.98,1.86,3.75,1.83,7.6,3.26,15.29,5.19,22.86.54,2.12,2.26,3.93,3.43,5.89,1.9-1.35,3.99-2.5,5.66-4.09,2.38-2.25,4.09-5.36,6.74-7.1,3.91-2.57,5.01-5.68,4.38-10.03-.58-4.02-.32-7.47,4-10.11,6.69-4.09,6.59-6.12,1-11.78-5.52-5.58-6.05-14.61-.56-17.71,6.89-3.88,10.88-9.69,14.49-16.47,1.71-3.21,5.77-6.03,9.35-7.1,2.75-.82,6.4,1.37,9.65,2.22-1.5,2.18-2.63,4.77-4.55,6.48-9.18,8.24-16.5,16.74-12.92,30.72,2.66,10.4,1.99,10.23,11.98,5.64,5.83-2.68,12.48-3.8,18.89-4.8,1.98-.31,4.39,2.1,6.6,3.27-1.73,1.73-3.22,4.52-5.23,4.97-4.37.97-9.01.64-13.52,1.06-2.47.23-5.44.25-7.13,1.64-.86.71.68,4.24,1.01,6.51.37,2.52,1.4,5.35.62,7.49-.62,1.7-3.53,2.56-5.42,3.79-.65-1.67-1.61-3.28-1.88-5.01-.33-2.1-.08-4.29-.08-7.44-6.81,5.46-10.62,18.45-8.18,25-3.49,2.32-6.77,5.39-10.65,6.84-4.58,1.71-9.68,2.08-14.58,2.91-2.3.39-4.64.62-6.97.69-3.69.11-7.38.03-11.07.03-8.01-3.41-8.5-4.95-6.35-13.47,1.3-5.16,1.96-10.48,3.04-16.49-13.94,6.68-14.37,8-10.33,21.06,1.24,4.01,1.22,8.41,1.95,13.91-17.21-3.31-21.19,14.87-34.01,17.99-.67.16-.74,2.12-1.49,2.81-2.69,2.49-5.46,4.92-8.37,7.14-2.09,1.59-4.45,2.82-6.7,4.21.21.38.42.76.64,1.15-4.52.59-9.04,1.17-14.3,1.86.84,1.98,1.08,3.59,2,4.52,4.21,4.23,8.74,8.15,12.93,12.39,4.72,4.78,5.78,12.48,1.18,18.07-1.56,1.89-6.93.8-10.56.8-7.36,0-14.73-.44-22.05-.02-1.29.07-3.77,3.91-3.34,5.27,2.32,7.42,1.87,14.45.14,21.96-1.02,4.4,0,9.65,1.51,14.04.51,1.48,5.37,1.43,8.23,2.13.84.21,1.7.49,2.43.94,8.39,5.17,15.28,4.54,21.9-2.54,3.24-3.47,8.76-7.91,8.27-11.17-1.32-8.86,5.73-11.01,9.49-15.86,2.01-2.59,4.3-5.3,5.2-8.33,1.42-4.75,5.07-7.52,8.58-5.67,7.16,3.78,10.85-.54,15.55-4.08,1.23-.93,4.51-.89,5.57.08,1.81,1.67,2.42,4.58,3.89,6.72,2.84,4.1,5.1,9.54,9.08,11.71,9.89,5.37,17.1,11.33,14.28,24.38,2.37-2.49,4.82-4.99,5.24-7.79.43-2.84-1.14-5.98-2.14-10.29,3.76,1.46,5.66,2.19,8.62,3.34-1.09-2.03-1.4-3.4-2.25-4.08-8.43-6.63-17.2-12.68-23.29-22-3.04-4.66-3.15-8.63,1.54-11.48,3.26,1.98,7.53,3.05,8.69,5.56,3.61,7.84,10.12,11.78,17.12,15.63,3.92,2.16,7.46,4.82,4.72,10.44-.55,1.12.74,3.21,1.34,4.79,2.26,5.86,4.43,11.76,7,17.48.74,1.65,3.18,4.13,4.04,3.84,3.42-1.14,6.98-2.77,9.48-5.24.77-.76-1.63-4.79-2.68-7.29-.33-.79-1.22-1.39-1.43-2.19-.58-2.19-.93-4.44-1.37-6.67,4.23.04,5.64-8.08,10.81-4.26,6.48,4.78,10.63-.05,16.4-2.59-7.24-5.68-6.36-10.98-1.44-17.2,4.1-5.19,6.79-11.48,10.6-16.93.88-1.26,4.97-2.08,5.54-1.4,1.72,2.06,3.21,4.91,3.38,7.54.32,5.2,2.58,8.27,6.09,6.8,4.76-2,7.43-8.73,4.51-15.44h10.02c-.2,2.46.04,5.06-.72,7.33-1.14,3.43-.97,5.63,2.59,7.55,4.98,2.69,9.81,5.75,14.32,9.16,1.61,1.21,3.37,4.42,2.81,5.79-.8,1.94-3.7,4.26-5.67,4.23-4.95-.08-10.57-.14-14.7-2.42-13.67-7.55-24.1,1.3-35.23,6.05-4.05,1.73-7.55,5.13-10.73,8.32-1.83,1.84-3.45,4.77-3.53,7.27-.14,4.04,12.77,14.46,16.9,14.32,8.75-.3,17.49-.67,26.3-1.02-1.92,10.67-4.01,22.31-5.82,32.36-6.53,0-13.54-1.98-18.32.43-8.78,4.43-15.63,1.69-22.97-1.96-4.13-2.05-7.97-4.73-12.22-6.46-6.85-2.79-10.3,0-11.08,7.24-.39,3.62-2.51,7.06-4.03,11.07-6.08-5.57-10.37-10.22-15.4-13.87-3.69-2.68-8.19-4.53-12.6-5.81-3.71-1.07-7.91-.35-11.71-1.22-4.17-.95-6.23-6.51-3.23-8.59,7.15-4.94,2.09-11.49,3.83-16.65-14.93.64-29.13.93-43.25,2.08-3.55.29-7.61,2.65-10.15,5.3-4.78,4.98-9.83,6.07-16.55,5.59-4.17-.3-8.97,2.2-12.78,4.58-3.77,2.36-6.68,6.11-9.91,9.31-3.56,3.54-6.21,7.51-4.03,12.77,2.58,6.24-2.53,16.67-9.22,16.82-5.03.12-6.37,3.04-7.97,6.35-5.34,11.07-10.83,22.08-15.65,33.37-1.01,2.36-.24,6.35,1.17,8.69,3.05,5.04,5.73,21.77,1.99,25.05-7.24,6.36-6.4,11.76-2.55,19.94,2.98,6.31,5.87,11.79,11.11,16.38,2.43,2.12,5.43,5.93,5.02,8.47-.94,5.83,1.95,8.56,5.81,11.38,3.19,2.33,7.41,4.12,9.26,7.27,6.3,10.74,15.48,8.48,24.82,6.69,1.94-.37,3.89-.79,5.85-.94,7.96-.58,15.42-1.66,21.67-7.83,3.98-3.93,15.27-2.03,16.38,2.61,1.95,8.18,7.36,6.91,13,6.88,6.91-.04,10.89,3.7,10.01,10.05-.82,5.95-2.91,11.72-4.09,17.64-.43,2.15-.59,4.93.4,6.7,3.62,6.45,7.36,12.92,11.84,18.79,6.41,8.39,9.09,17.55,8.33,27.95-.12,1.68-.02,3.85.91,5.06,4.01,5.17,1.45,9.26-1.36,13.74-2.07,3.3-3.56,7-5.01,10.65-6.05,15.18,1.29,27.64,7.95,40.44,2.19,4.21,2.86,9.35,3.56,14.17.99,6.86.07,14.26,2.28,20.62,3.64,10.48,9.17,20.3,13.81,30.44.42.92.75,2.48.28,3.13-4.51,6.15,1,10.18,3.08,14.84,1.73,3.87,4.57,4.37,8.69,2.81,5.67-2.15,11.69-4.6,17.58-4.65,9.88-.09,16.05-4.57,20.73-12.55,5.89-10.04,11.83-20.05,18.02-29.91,2.6-4.13,3.93-7.43-2.07-9.14.34-5.19,3.29-6.51,7.54-6.82,8.34-.61,11.13-3.97,9.18-12.02-1.27-5.23-3.49-10.33-5.98-15.12-1.96-3.76-1.51-5.33,2.2-7.72,7.78-5,15.08-10.8,22.37-16.52,1.39-1.09,2.53-3.28,2.67-5.05,1.06-12.74,1.9-25.7-4-37.51-4.77-9.54-3.41-19.02-1.85-28.65,1.92-11.87,11.91-18.52,18.58-27.25,7.65-10.03,18.84-17.13,23.49-29.73,3.09-8.36,7.31-16.31,11.05-24.43,2.19-4.75,4.23-9.5,1.68-14.87-7.23,1.5-14.07,2.84-20.86,4.38-1.9.43-3.69,1.4-5.51,2.17-6.42,2.71-8.33,1.63-10.78-4.82-1.91-5.03-3.76-10.46-7.13-14.45-5.4-6.4-11.51-12.04-12.9-20.91-.28-1.76-2.19-3.21-3.12-4.92-1.62-2.96-3.68-5.87-4.44-9.07-1.52-6.41,0-13.74-7-18.25-1.38-.89-1.49-3.99-1.86-6.12-1.43-8.09-3.63-15.66-9.46-22-2.43-2.64-3.34-6.66-4.94-10.06.91-.68,1.81-1.37,2.72-2.05,1.66,3.02,3.32,6.03,5.25,9.55,2.16-2.67,3.06-3.8,3.22-3.99,3.69,7.03,6.77,15.12,11.77,21.76,4.13,5.48,6.66,10.96,8.32,17.49,1.24,4.84,3.51,10.26,7.07,13.46,5.34,4.79,8,10.03,8.89,16.89.92,7.12,2.64,14.13,3.75,21.22.65,4.14,3.09,5.01,6.57,4.22,2.56-.58,5.3-1.11,7.49-2.43,19.22-11.59,40.58-20.42,53.09-40.77.79-1.29,2-2.33,3.01-3.48,4.87-5.51,5.67-12.86.06-16.86-5.68-4.05-9.87-8.61-12.74-14.72-.11-.24-.78-.22-1.55-.41-1.88,2.17-3.53,4.97-5.95,6.63-2.5,1.71-5.92,3.4-8.62,2.99-1.48-.23-2.23-4.83-3.45-7.4-1.19-2.52-1.95-6.22-3.96-7.2-5.91-2.87-8.82-7.63-10.92-13.32-1.85-5.01.09-7.89,4.87-9.34.72.61,1.34.95,1.69,1.47,4.41,6.46,8.28,13.39,13.4,19.22,2.14,2.44,6.82,3.01,10.48,3.64,2.69.46,7.44-1.53,8.13-.43,5.07,7.97,12.98,7.88,20.78,8.62,2.49.24,4.93.92,7.41,1.32,7.87,1.27,19.36-6.44,21.62,8.74.03.18.25.43.43.48,4.74,1.25,3.99,5.24,4.65,8.76,1.35,7.19,5.86,8.85,11.88,4.72,1.47-1.01,3.02-1.9,5.58-3.5,0,3.73-.01,6.08,0,8.43.04,6.55-1.24,13.45.4,19.57,4.64,17.3,10.39,34.31,15.9,51.36,1.34,4.16,3.91,3.32,6.39.68,8.73-9.31,12.33-20.52,11.7-33.04-.28-5.49.03-9.96,6.16-12.12,1.64-.58,3.8-2.47,3.97-3.95.82-7.51,6.5-10.88,11.39-15.28,2.92-2.62,4.46-6.77,6.69-10.18,1.15-1.76,2.6-4.97,3.64-4.87,6.07.6,11.48.15,14.5-5.82,3.52,5.92,6.52,10.96,9,15.11,0,2.6-.27,4.79.06,6.88.55,3.42,1.89,6.75,2.19,10.18.89,9.9,3.64,11.37,12.31,5.91,8.26,12.59,12.47,25.86,8.27,41.01-.48,1.74.61,4.05,1.3,5.97,2.65,7.34,5.69,14.54,8.09,21.96,2.46,7.59,6.18,13.74,16.25,17.44-2.88-12.09-3.07-23.79-11.52-31.36-13.03-11.67-8.12-24.69-5.97-39.39,6.64,7.77,12.6,14.17,17.84,21.1,3.07,4.06,6.13,4.5,10.15,2.36,2.32-1.24,4.64-2.52,6.78-4.04,9.43-6.71,10.47-9.78,5.91-20.48-3.79-8.89-7.77-17.75-12.42-26.21-3.03-5.51-2.36-9.42,2.22-13.23,3.43-2.85,6.74-5.83,11.15-9.66.65,2.88,1.89,5.49,1.6,7.92-.25,2.15-2.68,3.97-3.27,6.17-.79,2.96-1.01,6.16-.83,9.22.04.68,3.41,2.13,4.11,1.63,2.3-1.63,4.86-3.68,5.84-6.16,1.01-2.58.98-6.03.2-8.77-2.01-7.07-1.11-8.09,6.05-10.56,7.98-2.75,18.16-4.66,22.74-10.55,8.82-11.36,15.22-24.89,20.99-38.23,3.88-8.96-2.35-17.41-5.97-25.54-5.45-12.23-5.27-13.23,6.11-20.37.55-.35,1.39-.41,1.75-.88.84-1.1,1.48-2.37,2.2-3.57-1.35-.79-2.72-2.25-4.06-2.22-2.8.07-5.86.35-8.31,1.56-5.21,2.57-6.07-1.45-7.48-4.45-1.64-3.49-.42-5.49,3.4-6.9,2.85-1.05,5.38-3.35,7.64-5.51,1.95-1.86,3.33-4.32,5.77-7.61,1.5,6.94,4.57,10.16,10.69,9.88,1.22-.06,3.3,1.78,3.68,3.12,2.39,8.43,9.11,15.85,5.77,25.71-.81,2.37-.34,5.69,3.97,4.62,10.5-2.6,14.23-14.39,7.15-22.53-1.58-1.82-3.88-3.42-4.55-5.53-.73-2.3-.93-5.81.34-7.51,5.19-6.95,11.04-13.41,15.49-18.7,5.27-.56,11.57.69,13.91-1.8,11.28-11.96,22.34-24.44,25.93-41.3,1.64-7.68,3.13-15.43,4-23.22.43-3.8-.33-7.88-1.25-11.66-.89-3.62-3.67-5.74-7.52-4.22-6.5,2.55-10.56-1.7-15.82-4.44,1.13-1.44,1.73-2.32,2.44-3.1,8.55-9.33,17.15-18.62,25.67-27.98,4.06-4.45,9-6.17,14.84-4.96,3.22.66,6.33,1.82,9.52,2.6,4.34,1.06,8.98,3.48,11.72-2.92.32-.74,3.6-.76,5.16-.18.76.28.95,2.72.96,4.19,0,.9-.8,1.81-1.3,2.83,11.75,2.27,20.38-2.26,18.46-9.75,9.17-3.36,12.14-19.25,26.53-12.51v6.27c1.94-.43,3.33-.73,4.72-1.03.48.63.95,1.26,1.43,1.88-7.04,6.74-13.63,14.04-21.24,20.04-6.77,5.33-10.31,11.41-8.77,19.55,1.26,6.68,2.36,13.4,3.56,20.09.79,4.39,1.64,8.78,2.47,13.17.73.2,1.46.41,2.19.61,7.07-11.02,19.23-18.52,21.02-33.25.27-2.19,1.47-5.59,2.98-6.07,5.96-1.87,4.87-5.68,3.75-9.88-1.68-6.29-2.15-13.38,3.91-16.7,7.84-4.31,15.78-11.27,26.18-5.94,1.12.58,3.19.42,4.29-.26,6.63-4.13,12.89-8.91,19.72-12.65,4.22-2.31,9.15-3.93,13.92-4.47,6.27-.71,8.25-3.33,5.08-8.88-1.34-2.34-2.89-4.55-4.43-6.96q9.83-4.08,12.61-13.29c2.22,1.54,4.49,4.37,6.24,4.08,6.63-1.09,9.77,3.36,13.88,6.9,5.26,4.53,9.19,3.11,12.12-3.29.79-1.73,2.79-2.95,4.35-4.27,1.74-1.47,5.13-2.83,5.08-4.14-.07-2.15-1.88-4.98-3.79-6.16Z"/><path class="cls-1" d="m567.75,664.11c-2.39.48-5.7-1.79-8.04-3.55-1.83-1.37-2.93-3.8-4.16-5.88-2.4-4.07-5.47-5.27-9.92-3.14-1.38.66-3.38.71-4.87.28-3.09-.9-6.03-2.32-10.33-4.04,2.44-7.93-3.95-9.01-10.8-9.74-1.04-.11-2.14-.69-2.98-1.35-4.63-3.61-9.18-3.44-13.87-.08-.84.6-2.16.52-4.42,1.01,1.09-2.1,1.52-3.2,2.17-4.14,3.53-5.1,10.38-9.8,1.63-16.2-.67-.49-.64-2.03-.8-3.11-1.27-8.66-5.71-13.16-14.33-14.47-3.69-.56-7.67-.38-11.01-1.76-3.83-1.58-7.46-4.12-10.56-6.92-6.31-5.72-12.07-12.04-18.38-17.77-1.11-1-3.88-.77-5.68-.31-7.95,2.03-14.64-1.4-21.15-4.88-6.11-3.26-9.75-1.61-10,5.25-.04,1.1.32,2.35-.1,3.25-.56,1.22-1.7,2.17-2.59,3.24-1-1.22-2.64-2.36-2.84-3.7-.27-1.85.58-3.85.92-5.79.48-2.74.93-5.48,1.55-9.14-9.55,6.83-19.08,11.1-22.67,17.96-7.21-.46-12.22-1.66-16.91-.89-8.61,1.43-17.16-5.48-15.98-14.26.82-6.07,2.46-12.02,3.65-18.05.96-4.82-.93-7.05-6-6.6-5.25.46-10.52.82-15.79.91-5.2.09-6.87-2.38-3.59-6.39,5.39-6.58,4.62-14.43,6.07-21.83.85-4.33-1.76-5.59-5.53-4.58-5.06,1.35-8.01,4.78-9.82,9.73-2.61,7.15-18.41,10.72-22.69,4.52-4.35-6.29-8.06-13.91-9.1-21.36-1.24-8.94.49-18.34,1.23-27.51.45-5.64,3.19-9.65,8.78-11.99,8.68-3.63,17.23-6.3,27.3-.46-2.14-8.92,1.56-10.53,7.86-9.68,2.8.38,5.71-.01,8.56.07,8.76.26,10.19,1.94,11.85,10.7,1.04,5.48,2.66,11.01,5.11,15.99,1.16,2.35,4.88,3.44,7.44,5.1.98-2.98,2.46-5.91,2.77-8.96.23-2.24-1-4.66-1.74-6.96-1.4-4.38-3.07-8.69-4.33-13.11-2.55-8.92-.08-16.05,8.03-19.97,11.94-5.78,19.65-13.34,17.73-28.03-.76-5.86,1.14-12.12,7.87-14.52,10.38-3.71,16.12-10.27,16.76-21.8.2-3.54,3.66-7.85,6.85-10,3.45-2.33,8.33-2.55,13.46-3.93-.76,2.55-1.73,4.71-1.96,6.93-.15,1.46.76,3.02,1.19,4.54,1.46-.5,3.13-.71,4.35-1.56,4.98-3.47,9.46-7.84,14.81-10.49,4.35-2.16,6.02-4.37,4.65-8.8-2.4-.75-4.77-1.89-7.22-2.13-10.23-.99-9.89-.82-8.02-10.47.49-2.52-1.29-6.36-3.31-8.19-1.34-1.21-5.63-.84-7.4.45-4.01,2.95-7.2,7-10.9,10.41-1.47,1.36-3.42,2.2-5.16,3.27-.63-.61-1.25-1.22-1.88-1.83,1.73-2.77,3.07-5.91,5.27-8.23,9.44-9.93,19.96-17.23,34.72-12.13.2.07.44.01.66.02,5.27.16,10.04-.35,12.4-6.3.6-1.53,2.82-2.41,4.3-3.59.53.35,1.06.69,1.6,1.04-.66,3.11-1.01,6.33-2.07,9.3-1.69,4.73-4.07,9.22-5.77,13.94-2.05,5.68-.5,7.51,5.38,6.13,5.37-1.26,10.14-.54,14.14,3.12,3.03,2.76,5.58,4.27,8.65.22,3.53-4.65,3.23-8.46-1.18-11.65-5.11-3.69-10.25-7.33-16.05-11.47,1.14-.98,3.44-2.13,4.4-3.99,1.36-2.62,3.05-6.21,2.25-8.59-2.28-6.81-5.8-13.19-8.73-19.79-1.69-3.8-4.45-5.39-8.44-4.29-4.36,1.19-6.73-.81-9.31-4.16-3.72-4.84-3.97-9.37-.11-14.63-8.5-4.95-11.76-12.79-13.79-22.12-3.55,3.16-6.2,6.42-8.5,9.9-1.88,2.85-2.85,7.34-7.5,5.27-4.05-1.81-9.17-3.85-7.93-9.82,1.22-5.91,1.57-10.38-6.54-10.36-1.63,0-3.15-2.27-4.91-3.11-5.28-2.5-10.51-5.27-16.05-6.97-2.66-.82-8.31-.09-8.61,1.01-1.42,5.27-7.89,9.61-3.32,16.37,1.24,1.84,1.38,6.13.08,7.63-3.23,3.76-2.22,6.29.22,9.7,7.16,10.03,6.74,13.99-2.52,21.68-4,3.32-4.78,6.24-1.56,10.52,1.52,2.02,2.06,4.79,3.02,7.22,2.19,5.59-1.71,8.21-5.52,10.43-4.07,2.38-6.01-1.06-7.7-3.84-1.34-2.2-3.04-4.71-3.06-7.1-.08-8.43-5.03-13.16-11.51-17.12-3.74-2.29-7.46-4.66-10.99-7.26-6.38-4.7-12.6-9.35-21.17-9.46-1.79-.02-4.61-2.65-5.08-4.54-.85-3.45-1.19-6.39-5.65-6.69-.86-.06-2.38-1.81-2.29-2.64.65-6.36.8-12.96,2.74-18.96,1.78-5.5,5.59-10.35,9.16-16.63,12.09,1.05,19.95-5.6,22.68-19.17.93-4.6,3.03-7.67,9.23-4.59,7.58,3.77,13.54-1.03,13.15-9.43-.1-2.13-.39-4.59.48-6.37,3.35-6.87,3.51-6.76-3.87-8.15-2.16-.41-4.25-1.35-6.4-1.46-1.47-.08-3.8.41-4.34,1.41-2.39,4.43-4.13,9.2-6.4,13.69-.77,1.53-2.4,2.62-3.64,3.92-1.24-1.4-2.85-2.62-3.62-4.24-.71-1.5-.66-3.43-.73-5.18-.35-9.45-1.71-10.79-10.8-9.73-3.87.45-5.22-.48-4.47-4.67.35-1.98-.47-5.27-1.92-6.26-4.69-3.2-9.89-5.67-15.01-8.2-.42-.21-1.78,1.12-2.49,1.92-5.08,5.66-4.08,11.04,2.69,14.74,6.95,3.79,8.34,6.8,5.48,10.86-2.19,3.1-3.52,6.83-5.88,9.77-1.15,1.44-5.1,2.81-5.5,2.33-3.82-4.6-8.94-3.8-13.92-4.42-6.26-.78-12.37-2.63-18.6-3.73-5.13-.91-10.32-1.77-15.51-2-4.81-.21-6.56,2.55-5.49,7.35.37,1.64-.27,3.5-.45,5.26-1.62-.35-3.28-.6-4.87-1.06-6.22-1.78-12.51-3.39-18.61-5.54-3.68-1.3-7.09-3.41-10.55-5.28-3.79-2.05-7.27-5.27-11.29-6.17-13.86-3.08-27.9-5.36-41.87-7.98-6.09-1.14-12.08-2.14-17.9,1.26-4.12,2.41-8.23,5.2-13.54,3-.86-.36-3.08.47-3.43,1.29-3.55,8.1-7.9,6.49-13.21,1.71-1.85-1.67-4.66-2.65-7.18-3.13-10.53-2-21.12-3.72-31.7-5.5-10.35-1.74-20.97-2.5-30.99-5.38-17.77-5.11-33.18-2.31-47.11,9.89-2.97,2.6-7.04,3.92-10.44,6.1-1.89,1.21-3.43,2.98-5.13,4.5,1.4,1.43,2.6,3.21,4.26,4.22,2.41,1.47,5.47,1.98,7.68,3.65,3.97,3.01,7.52,6.58,11.24,9.92-.51.79-1.02,1.58-1.53,2.37-4.04-1.29-8.1-2.55-12.13-3.87-6.44-2.11-10.75-.55-12.43,4.56-1.68,5.09,1.36,9.99,7.66,11.58,2.44.62,5.17.48,7.72.2,3.57-.38,7.08-1.2,10.67-1.85.8,9.19-.8,11.69-8.03,14.43-4.09,1.55-8.08,3.38-12.07,5.19-4.98,2.25-4.67,5.74-1.07,8.62,3.72,2.98,8.33,4.82,12.18,7.67,2.45,1.82,5.82,4.44,6.01,6.91.57,7.44,4.27,6.81,9.38,5.15,4.32-1.4,8.77-2.37,13.16-3.53.28.71.55,1.42.83,2.13-8.79,14.82-21.84,25.14-37.09,33.62,3.49.63,6.22,0,8.88-.85,16.17-5.08,28.25-16.54,41.07-26.77,1.7-1.36,2.77-4.25,3.02-6.55.61-5.61,3.56-10.17,8.94-12.09-1.04,3.68-2.04,7.2-3.03,10.73.5.36,1,.72,1.49,1.07,4.92-3.1,11.94-5.1,14.29-9.55,4.12-7.81,7.59-4.46,12.48-2.18,5.46,2.54,11.16,5.57,16.97,6.15,8.39.84,16.63.75,23.48,6.74,1.21,1.06,3.37,1.83,4.9,1.58,7.31-1.2,10.83,3.4,13.99,8.63,2.72,4.5,6.22,8.8,7.74,13.69,5,16.08,18.11,28.57,20.05,45.92.02.21.14.42.24.61,8.42,15.68,11.17,32.73,11.72,50.21.59,18.6,7.95,34.46,19.19,48.75,1.75,2.22,5.07,3.13,7.39,4.99,2.91,2.33,6.11,4.63,8.13,7.65,1.88,2.81,2.5,6.51,3.47,9.88,4.65,16.19,12.05,31.08,21.39,45.02,1.58,2.36,3.8,4.3,5.72,6.44.78-.43,1.56-.86,2.34-1.29-.95-2.73-1.58-5.63-2.92-8.15-6.36-12.01-13.03-23.86-19.32-35.9-1.25-2.38-1.34-5.37-1.97-8.07.65-.27,1.3-.55,1.95-.82,1.16,1.09,2.61,2.01,3.45,3.31,11.58,17.86,23.14,35.75,34.52,53.74,1.34,2.12,2.56,5.07,2.2,7.37-1.31,8.22,3.15,13.08,9.26,16.64,9.07,5.29,18.52,9.92,27.76,14.92,5.11,2.76,9.89,3.67,15.1-4.08,2.07,3.06,3.59,5.42,5.23,7.7,4.73,6.55,11.02,10.63,19.13,11.45,5.63.58,9.12,4.07,10.2,8.92,2.02,9.06,7.3,14.83,15.03,19.49,5.82,3.51,10.59,6.26,17.04.99,4.34-3.55,7.98-1.6,9.94,3.61,2.06,5.49,2.49,10.42,1.54,16.68-1.44,9.49-5.48,16.75-11.34,23.4-6.69,7.6-7.26,11.01-2.44,19.35.91,1.57.66,5.6-.39,6.22-6.84,4.02-5.26,8.62-1.82,13.78,1.7,2.55,3.51,5.1,4.69,7.89,5.09,12.09,9.94,24.28,14.94,36.41,1.53,3.71,2.46,8.1,5.06,10.86,4.32,4.58,9.42,8.7,14.85,11.9,6.94,4.09,8.77,9.82,8.29,17.18-.91,13.81-1.56,27.63-2.56,41.43-.23,3.2-1.57,6.31-2.21,9.5-.81,4.01-1.74,8.04-2.03,12.1-.4,5.45.36,11.04-.45,16.41-1.78,11.7-4.31,23.28-6.37,34.94-.79,4.5-1.42,9.06-1.59,13.62-.16,4.13-.96,9.1.9,12.3,6.18,10.59-.25,20.32-.93,30.37-.25,3.73-3.27,7.47-2.96,11.02,1.15,13.07,2.84,26.13,4.99,39.08,1.06,6.37,6.93,10.06,13.47,10.29,3.46.12,7.18.02,10.28,1.26,5.22,2.09,9.1.26,13.25-2.24-.42-.79-.53-1.27-.83-1.5-.51-.39-1.11-.79-1.73-.91-8.67-1.66-13.33-6.98-14.52-15.63-.17-1.24-.83-2.54-1.6-3.56-3.23-4.28-1.65-7.13,1.75-10.73,4.59-4.87,8.4-10.55,11.97-16.24.8-1.27-.03-4.89-1.32-5.93-5.93-4.77-5.96-9.1.47-13.03,6.57-4.01,8.83-8.75,7.13-15.87-.65-2.74-2.34-5.23-3.01-7.97-.83-3.36-.57-6.51,4.36-5.27,8.68,2.17,11.35-.33,9.96-9.36-.18-1.18.12-2.44.22-3.91,1.28.1,2.14.06,2.95.25,9.71,2.29,14.38.97,18.6-5.33,4.3-6.41,3.7-10.66-2.42-19.03-2.57-3.51-4.84-7.23-7.25-10.86.54-.46,1.08-.91,1.62-1.37,3.6,2.71,7.12,5.55,10.84,8.11,4.09,2.82,8.06,4.14,12.2-.49,6.6-7.36,7.76-18.14,15.76-24.56.46-.37.57-1.17.88-1.75,1.85-3.47,4.17-6.77,5.45-10.44,1.22-3.49,1.46-7.35,1.93-11.07.37-2.95-.75-7.07.82-8.69,4.34-4.46,9.96-7.63,14.66-11.78,4.17-3.68,9.01-4.41,14.12-5.5,2.18-.46,4.1-4.09,5.31-6.66,2.04-4.31,3.49-8.91,5.05-13.43,1.54-4.47,3.6-8.9,4.19-13.51.7-5.4-.14-10.97.11-16.45.13-2.74.58-5.82,1.98-8.07,3.68-5.92,7.39-12,12.12-17.05,7.23-7.71,6.07-16.42,4.69-25.37-.52-3.4-1.9-5.22-6.32-4.33Z"/><path class="cls-1" d="m633.49,144.73c-3.76-7.01-1.93-11.9,5.72-15.11,1.27-.53,2.33-1.85,3.19-3.03,4.39-5.96,3.86-12.71,1.35-18.84-2.2-5.36-1.34-9.57,1.02-14.35,1.81-3.66,2.52-7.84,4.07-11.65,1.75-4.3,2.92-9.46,6.07-12.42,5.5-5.18,12.22-9.11,18.63-13.25,2.48-1.6,5.62-2.6,3.81-6.25-1.64-3.31-3.75-7.06-8.46-5.55-14.77,4.73-29.46,9.69-44.18,14.58-1.63.54-3.24,1.14-4.87,1.71-.31-.53-.61-1.07-.92-1.6,5.97-8,19.69-8.09,22.22-21.51-9.94-1.35-19.63-2.48-29.24-4.06-5.71-.94-11.28-2.68-16.96-3.88-3.54-.75-7.15-1.67-10.72-1.63-6.77.08-13.71,1.97-20.25.97-9.85-1.51-11.55-1.69-16.81,5.79-12.05-2.17-15.23-1.62-27.63,4.62-.93.47-2.17.85-3.15.65-14.49-2.89-28.31,1.55-42.34,3.72-4.97.77-10.03,1-14.92,2.09-1.79.4-4.75,2.93-4.52,3.85,2.2,9.04-4.01,7.67-9.19,8.05-6.42.48-12.86,1.2-19.04,7.66,5.61.89,9.6,1.53,15.57,2.48-3.2,3.15-4.78,5.88-7.05,6.69-5.08,1.83-10.5,2.73-15.8,3.95-4.95,1.14-9.92,2.21-16.61,3.7,2.75,3.02,3.75,5.13,5.28,5.63,8.91,2.93,12.21,11.5,17.67,17.7,3.18,3.61,5.21,3.34,8.82,1.85,3.34-1.38,7.01-2.78,10.52-2.76,22.01.1,37.44,15.7,37.66,37.63.08,7.95.87,8.19,8.43,5.36,2.94-1.1,7.43-1.76,9.71-.29,10.42,6.73,9.13,22.08-1.87,27.52-7.97,3.94-9.83,7.92-7.41,16.51,4.62,16.37,13.32,30.53,24.37,43.25,1.56,1.8,4.86,2.75,7.41,2.88,3.83.19,6.83.65,8.36,4.74.54,1.43,2.04,2.51,3.63,4.37,2.79-6.65,6.75-12.29,7.29-18.23.77-8.43,4.57-14.54,8.7-21.47,4.29-7.21,10.55-10.58,17.16-13.07,9.3-3.5,16.13-8.71,20.29-17.73.54-1.17,3.02-1.96,4.63-2.01,4.24-.13,9.29,1.79,12.58.1,8.73-4.47,16.88-10.19,24.93-15.88,4.7-3.32,5.63-8.29,2.86-13.47Z"/><path class="cls-1" d="m1431.35,792.88c-1.17-4.3-1.95-8.83-3.87-12.79-3.95-8.12-8.28-16.08-13.01-23.76-1.88-3.05-4.85-6.19-8.05-7.47-4.21-1.68-5.46-3.82-5.87-8.12-.6-6.28-2.15-12.5-3.71-18.65-.38-1.5-2.4-3.73-3.6-3.68-3.95.15-3.86-2.18-4.52-4.93-1.19-4.97-3.05-9.78-4.63-14.65-.87.13-1.73.26-2.6.39-1.86,12.73-3.72,25.46-5.83,39.93-9.2-6.58-16.54-11.57-23.47-17.08-.91-.73-.05-4.2.57-6.23,1-3.32,2.47-6.49,3.98-10.32-8.58-.75-15.08-2.66-22.69.04-7.18,2.54-13.33,8.64-10.43,18.15-4.48-3.31-7.43-5.96-10.81-7.77-1.44-.77-4.58-.55-5.61.51-4.12,4.24-7.69,9.01-11.52,13.54-.78.92-2.11,2.5-2.67,2.31-6.42-2.27-4.97,2.94-5.49,5.83-.72,3.95-1.16,7.35-5.8,9.33-10.33,4.41-20.38,9.51-30.43,14.57-1.52.77-3.4,2.9-3.36,4.35.31,10.09.05,20.37,1.99,30.19,2.37,11.95,8.09,23.15,7.49,35.88-.14,2.9,1.89,7.5,4.17,8.51,2.7,1.2,6.79-.44,10.19-1.22,4.75-1.1,9.39-2.71,14.15-3.82,2.72-.63,6.8.35,8.16-1.22,8.54-9.83,20.54-10.23,31.81-12.42,9.88-1.92,15.09,1.1,19.62,9.95,1.23,2.41,2.88,4.61,4.5,7.19,3.44-2.55,6.2-4.6,9.53-7.07,1.6,4.97,1.74,10.79,4.69,13.24,4.36,3.63,3.65,9.08,6.5,12.24,4.19,4.64,9.98,8.11,15.66,10.94,1.4.7,4.99-3.01,7.99-4.96,1.94,2.05,4.3,4.56,7.03,7.45,3.93-4.47,6.67-10.34,13.9-9.65.6.06,1.67-3.41,2.29-5.31,2.68-8.3,3.67-17.73,8.38-24.62,4.42-6.46,6.13-12.45,6.74-19.8.45-5.45,2.15-10.65-1.21-15.76-.51-.77.12-2.2-.16-3.23Z"/><path class="cls-1" d="m426.48,158.39c-2.46-2.05-5.59-3.34-8.48-4.84-6-3.12-12.68-5.34-17.92-9.42-7.93-6.16-15.52-7.94-24.97-3.87-8.59,3.7-9.56,2.42-9.03-6.63.15-2.54-1.42-6.49-3.38-7.48-2.05-1.03-6.33-.18-8.14,1.47-2.56,2.34-3.88,6.12-5.47,9.41-.75,1.55-.91,3.38-1.34,5.08-.88-.17-1.76-.33-2.64-.5.92-4.9,1.84-9.8,2.76-14.69-6.21-.97-15.09,1.48-18.68,4.97-4.9,4.77-4.7,19.77.85,22.21,6.27,2.76,13.08,4.46,19.78,6.07,4.45,1.07,9.12,1.51,13.7,1.62,4,.1,8.03-.64,12.04-1.01.22-.77.45-1.54.67-2.31,1.2,1.95,2.12,4.16,3.66,5.8,2.17,2.32,4.54,5.55,7.26,6.07,12.31,2.35,9.7,6.35,9.37,14.34-.11,2.79-2.93,5.48-4.65,8.46.7,1.4,1.55,3.1,2.93,5.88-4.35-.67-7.7-1.47-11.09-1.6-1.95-.08-4.81.33-5.67,1.6-.9,1.32-.41,4.19.41,5.94,2.13,4.52,6.12,6.09,10.33,3.42,5.19-3.3,8.61-1.1,12.07,2.41,7.2,7.31,15.39,13.02,25.39,15.88,2.84.81,5.62,1.87,8.43,2.81.36-.68.72-1.35,1.08-2.03-4-3.59-8-7.18-12-10.77.41-.62.83-1.23,1.24-1.85,3.11,1.7,6.12,3.63,9.36,5.01,2.1.9,6.26,1.85,6.52,1.32,1.23-2.51,2.51-5.88,1.73-8.26-.93-2.83-3.85-5.08-6.12-7.37-2.92-2.94-6.41-5.38-8.93-8.6-1.3-1.66-1.02-4.56-1.45-6.89,2.63.81,5.93.9,7.72,2.59,2.8,2.65,4.28,6.65,6.92,9.53,1.25,1.36,5.25,2.49,5.7,1.91,3.9-4.97,7.28-10.35,11.47-16.6-10.77-3.87-19.75-6.91-28.58-10.35-4.77-1.87-5.91-6.77-2.36-10.37,3.27-3.32,2.23-6.11-.5-8.39Z"/><path class="cls-1" d="m324.06,54.93c6.54,2.38,13.46,3.74,20.22,5.51,2.08.54,4.14,1.15,6.2,1.73-.06.73-.13,1.47-.19,2.2-3.06.32-6.19.38-9.17,1.06-1.76.41-3.29,1.81-4.92,2.76.95,1.55,1.68,3.31,2.91,4.6,1.89,2.01,4.12,3.7,6.4,5.68q-13.34,6.96-9.43,17.39c-2.52,1.84-5.03,3.66-7.54,5.49.2.75.41,1.49.61,2.24,6.4-.34,12.79-.69,19.19-1.03,3.06.32,6.05.83,8.76.18,2.97-.72,5.64-2.6,8.11.85.43.6,1.65,1.21,2.27,1.02,3.71-1.08,7.35-2.39,11.02-3.63-1.13-2.58-2.26-5.16-4.09-9.36,4.69-2.19,9.63-4.17,14.2-6.81,1.45-.84,3.02-3.74,2.6-5.12-1.51-5.02,1.06-6.33,5.06-7.02,6.67-1.15,11.76-4.63,17.06-8.97,5.88-4.81,13.57-6.86,17.43-14.84,1.1-2.26,8.42-1.6,12.91-2.09,3.47-.38,7.59.14,7.69-4.95.1-4.84-3.76-5.12-7.34-5.66-24.76-3.72-49.35-2.6-73.9,2.07-14.67,2.79-29.06,7.71-44.41,6.28-1.85-.17-5.68,2.61-5.6,3.82.16,2.34,1.98,5.83,3.95,6.55Z"/><path class="cls-1" d="m183.03,149.47c3.91-2.52,7.2-6,11.43-9.62.24,2.37.48,4.01.55,5.67.49,11.98,8.7,21.15,20.46,22.95,1.21.19,2.84.66,3.42,1.55,5,7.68,11.17,5.37,17.1,1.85,6.8-4.05,13.48-4.79,20.57-1.07,1.15.6,2.46.96,3.74,1.23,4.79,1.01,10.46-2.21,12.07-6.93,1.77-5.19-2.62-6.43-5.7-8.08-5.25-2.82-9.42-6.2-10.64-12.49-.4-2.04-1.58-4.26-3.09-5.66-1.89-1.75-4.76-4.05-6.7-3.66-1.75.35-2.82,4.04-4.82,7.26.16.07-.95-.18-1.73-.83-7.39-6.08-15.7-8.89-25.39-9.12-3.89-.09-7.75-3.32-11.52-5.32-2.06-1.1-3.73-3.13-5.88-3.84-4.43-1.47-9.12-2.15-13.59-3.52-4.91-1.51-11.48.42-10.78,3.69,1.16,5.41-2.85,7.22-5.22,10.43-1.8,2.44-4.15,5.98-3.57,8.37,1.85,7.58,12.65,11.42,19.29,7.14Z"/><path class="cls-1" d="m789.18,72.81c4.5,3.23,5.48,7.37,4.76,12.63-1.17,8.53,3.57,14.84,9.3,23.05,4.15-10.62,7.66-19.6,11.17-28.57.77.21,1.55.41,2.32.62.1,2.07-.23,4.28.4,6.18.94,2.85,2.07,5.97,4.1,7.97.94.92,5.89-.09,6.13-1,.78-2.91,1.02-6.48,0-9.25-2.1-5.73-5.36-11.03-7.68-16.7-.86-2.11-.44-4.74-.6-7.14q6.92,6.18,12.59-.11c1.75-1.95,3.8-3.84,4.87-6.14.76-1.65.92-4.62-.07-5.85-6.22-7.72-18.4-8.69-25.59-1.96-4.14,3.88-8.03,3.82-12.44,1.07-1.66-1.04-3.3-2.12-6.32-4.07-2.41,5.8-4.64,10.71-6.49,15.76-1.91,5.2-1.27,10.08,3.53,13.52Z"/><path class="cls-1" d="m1404.05,665.71c-10.08-11.82-24.54-16.51-37.88-22.89-4.96-2.38-10.39-2.57-12.67,4.61-.47,1.47-2.15,2.56-4.87,5.63-2.08-4.78-4.25-8.12-4.92-11.75-.84-4.53-2.57-6.27-7.05-4.84-2.01.64-4.05,1.18-7.31,2.13,3.14,4.65,4.95,9.66,8.52,12.11,6.42,4.39,14,7.05,20.85,10.86,1.83,1.02,3.52,3.42,4.02,5.48,1.7,7.04,4.48,12.88,11.95,15.4,5.01,1.69,9.93,4.27,13.54-2.38.5-.92,2.87-1.8,3.75-1.38,3.81,1.84,8.95,3.29,10.73,6.48,3.8,6.82,9.86,7.7,17.28,9.92-1.55-7.38-7.13-10.2-10.73-14.48-1.61-1.92-3.7-5.42-2.97-6.93,1.89-3.88-.28-5.65-2.24-7.95Z"/><path class="cls-1" d="m1259,600.2c-3.32,4.84-7.97,8.84-12.37,12.86-2.8,2.56-6.18,4.48-10.78,7.74-9.19-.29-11.58,3.18-7.7,14.62.77,2.28,1.65,4.54,2.68,6.71,2.65,5.59,19.47,13.04,25.32,11.29.21-.06.42-.14.62-.23,6.38-2.71,11.51-13.07,10.31-20.22-.27-1.63.51-3.45.86-5.16.55-2.72,2.24-5.78,1.5-8.06-1.55-4.8-3.23-8.77,1.36-13.09,2.54-2.39-.56-11.81-3.89-12.47-4.56-.92-5.71,2.82-7.91,6.02Z"/><path class="cls-1" d="m960.82,705.52c-1.46,2.76-2.5,5.88-4.48,8.19-3.71,4.35-7.33,9.38-12.14,12.07-7.92,4.44-10.19,9.13-7.09,17.9,1.11,3.14,1.82,8.5.1,10.21-8.96,8.88-4.45,17.89-1.14,26.74,2.23,5.96,7.29,6.52,12.04,2.38,6.71-5.85,7.25-13.51,7.18-21.63-.03-3.55.83-7.19,1.81-10.64,1.17-4.12,3.09-8.02,4.34-12.11,1.21-3.95,1.27-8.42,3.13-11.99,4.06-7.8-.4-13.96-1.88-20.72-.63-.13-1.25-.27-1.88-.4Z"/><path class="cls-1" d="m709.68,281.34c3.74,2.23,7.48,4.47,11.22,6.7-.24.91-.48,1.83-.71,2.74-2.67,1.2-5.35,2.41-6.65,3-2.73,9.12-5.16,17.24-7.66,25.58,1.2,0,1.86.13,2.45-.02,8.86-2.16,18.28-3.16,26.32-7.04,3.84-1.86,5.06-9.17,7.46-14.01-1.14-.44-2.44-.66-3.38-1.37-1.47-1.12-2.88-2.43-3.97-3.92-1.2-1.64-1.74-3.8-3.04-5.34-6.71-7.95-15.17-15.25-7.8-28.06h-10.28c2.06-2.87,3.6-5.02,5.26-7.33-7.18-2.77-13.32,1.23-13.64,9.5-.26,6.87,1.52,13.82,2.4,20.74.67-.39,1.33-.78,2-1.17Z"/><path class="cls-1" d="m970.07,142.97c7.8,5.98,16.63,10.23,29.07,9.08-3.77-2.7-6.02-4.57-8.51-6.04-4.31-2.53-5.39-6.23-2.5-9.91,5.09-6.49,10-13.64,16.53-18.37,10.29-7.46,22.01-12.75,35.03-14.24,1.89-.22,4.38-.74,5.38-2.04,1.6-2.1,2.72-4.92,2.99-7.54.13-1.25-2.3-3.98-3.38-3.88-2.51.23-4.95,1.65-7.32,2.8-2.41,1.18-4.56,3.24-7.07,3.83-5.75,1.35-11.89,1.34-17.45,3.17-8.42,2.77-17.41,5.07-22.78,13.25-5.02,7.65-9.24,15.81-17.81,20.61-3.03,1.7-6.24,6.15-2.18,9.27Z"/><path class="cls-1" d="m296.55,91.34c-.99,9.02,1.85,14.11,8.27,13.24,7.63-1.04,9.75,2.88,10.73,8.85,1.03,6.28,4.92,6.94,10.12,5.55,1.55-.41,3.27-.92,4.77-.64,3.64.68,7.15,2.29,10.79,2.61,4.77.42,9.81-.96,14.39.05,12.17,2.68,11.83-.21,16.23-10.06-7.65-3.55-15.22-5.43-22.82-.13-3.29,2.3-5.84,3.32-8.93-.5-1.03-1.27-4.03-1.47-6.05-1.28-4.32.4-7.15-.78-8.55-5.19-1.29-4.07-3.96-5.29-8.57-5.04-3.89.21-7.91-2.07-12.05-3.31.98-2.09,1.69-3.59,2.62-5.58-7.7-4.73-15.14-9.3-23.28-14.3-.87,11.36,1.56,14.15,12.34,15.73Z"/><path class="cls-1" d="m1212.88,663.29c3.3-3.71,3.73-7.59.66-11.88-3.42-4.79-6.14-10.08-9.72-14.73-4.74-6.15-9.98-11.92-15.1-17.77-3.28-3.75-7.13-7.06-9.99-11.09-4.08-5.75-9.32-6.96-16.41-6.12.6,1.75.64,2.53,1.04,2.96,14.29,14.98,22.77,33.58,32.42,51.47,1.5,2.78,4.12,5.11,6.62,7.17,3.31,2.73,7.09,3.81,10.49,0Z"/><path class="cls-1" d="m1339.02,415.05c-2.08.1-4.27,2-6.06,3.48-5.82,4.82-9.93,12.64-10.76,19.87-.1.83-.23,1.66-.66,4.77,3.44-1.9,6.61-2.59,7.31-4.29,1.17-2.84.56-6.36,1.12-9.53.3-1.69,1.48-3.22,2.78-5.9,1.24,4.49,1.9,6.9,2.78,10.11,3.57-3.17,6.16-5.46,8.74-7.76.3.46.59.91.89,1.37,1.93-.45,5.03-.32,5.58-1.45,2.22-4.49,5.63-4.48,9.8-4.28,7.19.35,11.89-4.16,12.45-11.46.25-3.27,0-6.59.37-9.85.2-1.83.65-4.22,1.9-5.24,5.47-4.45,3.28-9.44,1.27-14.27-.51-1.22-2.75-2.49-4.05-2.35-1.04.11-2.27,2.22-2.66,3.64-.74,2.72-.06,6.2-1.52,8.28-7.56,10.74-13.08,24.06-29.3,24.85Z"/><path class="cls-1" d="m666.15,193.15c-1.59-1.52-4.66-1.96-7.07-2.02-3.48-.08-7.1,1.4-10.43.84-4.71-.79-8.98-1.96-11.53,4.28-1.58-3.06-2.7-5.22-4.22-8.15-3.78,3.19-6.87,5.8-9.77,8.25,3.12,5.05,6.63,8.85,7.88,13.29,1.24,4.35,3.43,5.24,7.19,6.06,10.22,2.21,17.51-3.95,25.61-8.11,10.27-5.28,10.68-6.47,2.33-14.44Z"/><path class="cls-1" d="m200.97,111.48c-.87,1.05-2.01,2.67-1.72,3.66.3,1.04,2.16,2.3,3.33,2.3,4.07,0,8.14-.52,12.22-.85.57,6.51,4.36,9.09,10.79,6.29,5.9-2.57,11.46-4.9,18.21-3.47,5.35,1.13,5.12-3.49,5.29-6.92.16-3.22,1.81-7.7-4.22-7.27-4.35.31-5.79-1.97-6.23-5.78-.15-1.29-.99-2.49-1.62-3.97-6.28,6.01-6.39,7.44-1.2,15.02-8.17,3.98-12.83-1.81-17.92-5.43-7.57-5.37-8.12-5.37-12.8,2.41-.96,1.59-2.91,2.55-4.13,4.02Z"/><path class="cls-1" d="m309.3,82.04c2.33,2.18,5.77,4.64,8.63,4.47,4.39-.25,8.89-2.13,12.92-4.16,5.86-2.95,5.78-4.93,1.13-9.6-1.2-1.21-1.63-3.23-2.26-4.93-.51-1.38-.3-3.47-1.22-4.16-5.63-4.23-11.48-8.16-18.46-13.02-2.62,6.96-5.26,14.01-7.99,21.27,3.68,1.09,6.57,1.94,9.36,2.76-.95,3.09-2.87,6.66-2.11,7.37Z"/><path class="cls-1" d="m1158.4,65.51c.76,1.21,1.13,2.32,1.9,2.96,5.39,4.43,10.78,8.89,16.4,13.03,1.09.81,3.38.76,4.79.23,5.33-2.01,11.24-13.94,9.76-19.25-.17-.61-.51-1.23-.93-1.7-1.99-2.22-15.98-4.34-18.75-2.79-4.19,2.33-8.33,4.76-13.17,7.53Z"/><path class="cls-1" d="m287.99,127.13c-2.39-.37-4.78-.68-7.17-1.01-.39-.5-.77-.99-1.16-1.49-4.4,3.21-9.04,6.16-13,9.85-.8.75.23,5.04,1.65,6.32,3.7,3.31,7.99,6.01,12.25,8.61,1.32.8,3.85,1.24,4.91.52,2.95-2.02,7.37-4.54,7.64-7.23.5-4.84-1.55-9.96-2.71-14.91-.09-.39-1.58-.52-2.43-.65Z"/><path class="cls-1" d="m1275.76,632.05c-.65,10.01-1.77,19.99-2.91,32.14,3.6-1.47,6.44-1.75,7.32-3.21,1.22-2.01.96-4.91,1.34-7.42,1.73,2.01,2.29,3.86,2.88,5.7,1.51,4.71,4.11,3.74,6.69,1.09,3.13-3.22,1.03-5.84-1.74-7.46-4.84-2.83-5.12-5.41-.6-8.73,1.06-.78,1.66-2.2,2.59-3.49-1.07-.56-1.6-1.02-2.19-1.11-3.99-.61-9.79-.19-8.7-6.07.98-5.27,6.53-3.7,10.59-3.45.43.03.9.3,1.29.21,3.43-.8,6.85-1.66,10.27-2.5-7.41-.82-14.28-.68-21.14-.87-3.81-.11-5.43,1.14-5.69,5.18Z"/><path class="cls-1" d="m947.24,49.98c0,3.25-.54,5.4.15,7.02.71,1.67,2.57,4,4,4.04,10.98.35,18.18-8.81,15.43-19.83-1.35.77-3.05,1.17-3.72,2.23-3.55,5.6-7.29,5.08-12.51,1.87-6.86-4.21-20.26-.81-25.77,5.66,7.33,6.29,14.79,4.08,22.43-.99Z"/><path class="cls-1" d="m175.95,110.98c6.36-1.15,12.43-3.86,18.95-5.99-.21,2.17-.39,4.14-.58,6.1,4.08-3.86,7.64-7.96,9.91-12.68,1.88-3.92-3.08-11.84-6.09-10.65-4.7,1.84-9.12,4.5-13.41,7.22-4.47,2.84-8.63,6.15-12.93,9.26-.6-.32-1.19-.64-1.79-.95.14,3.98.48,8.69,5.94,7.7Z"/><path class="cls-1" d="m268.32,113.91c3.82.33,7.54,1.74,11.36,2.03,2.27.17,5.76-.15,6.74-1.59,2.74-4.02,2.3-14.65.15-15.72-.19-.09-.42-.14-.63-.16-5.07-.58-10.55-3.84-13.94,3.66-1,2.21-4.8,3.16-7.45,4.76-1.81-3.37-2.96-6.26-4.8-8.59-.81-1.02-3.06-1.27-4.61-1.16-.62.04-1.62,1.99-1.58,3.03.17,4.56,10.17,13.35,14.76,13.75Z"/><path class="cls-1" d="m366.69,210.16c-2.46-2.34-5.9-3.67-8.98-5.33-12.57-6.76-12.28-6.63-17.4,6.18-1.91,4.79-.08,6.93,3.4,8.99,3.87,2.29,6.05.14,7.93-3.04.94-1.6,2.21-3.01,3.54-4.79,2.13,2.26,3.5,4.92,5.46,5.47,2.45.69,5.39-.35,8.12-.65-.64-2.34-.57-5.41-2.07-6.84Z"/><path class="cls-1" d="m1370.28,114.98c5.71.09,11.53-1.56,17.14-3.08,1.7-.46,4.07-2.99,3.97-4.43-.12-1.8-2.16-3.97-3.94-5.01-1.96-1.15-4.94-.63-6.8-1.86-3.82-2.5-5.51-.67-6.82,2.49-.67-.11-1.16-.08-1.52-.27-3.94-2.13-8.06-3.13-11.26.74-1.23,1.48-1.87,5.59-1.01,6.26,3,2.35,6.75,5.11,10.25,5.16Z"/><path class="cls-1" d="m682.31,304.07c1.96,2.04,3.26,4.64,5.03,5.02,6.2,1.31,14.38-7.75,13.68-14.19-.22-2.02.46-4.53,1.6-6.23,2.68-3.97,1.38-9.51-2.56-8.64-4.7,1.04-9.02,4.95-12.8,8.39-1.38,1.26-1.92,5.78-.82,7.01,4.68,5.24.33,6.51-4.12,8.64Z"/><path class="cls-1" d="m1159.99,62.32c5.8-4.73,11.73-7.6,13.94-12.24,1.04-2.18-4.32-10.03-8.12-11.29-5.86-1.94-16.92,7.53-15.66,12.79.89,3.71,5.72,6.47,9.83,10.74Z"/><path class="cls-1" d="m1252.27,682.4c-.62-1.25-.9-3-1.9-3.67-6.71-4.45-12.05-12.64-22.26-8.07-1.49.67-4.08-1.07-6.14-1.77-1.85-.64-3.66-1.39-6.43-2.46-1.3,1.56-4.12,3.58-3.81,4.88.51,2.2,2.68,5.17,4.69,5.68,10.56,2.68,21.28,4.77,31.99,6.85,1.15.22,2.57-.92,3.87-1.44Z"/><path class="cls-1" d="m220.19,89.15c1.53.25,2.91,2.11,4.36,2.12,3.01,0,6.93.26,8.8-1.44,2.24-2.04,2.72-6,3.96-9.13.78-.54,1.56-1.09,2.34-1.63-4.13-1.82-8.28-5.12-12.39-5.07-4.91.06-9.78,2.99-15.5,4.96-.92,6.9.58,8.94,8.43,10.19Z"/><path class="cls-1" d="m303.41,142.09c1.74.89,5.54-1.89,8.24-3.37,1.49-.81,2.79-2.17,3.83-3.54,2.38-3.12,4.56-6.4,6.81-9.62-3.91-.82-7.8-2.23-11.73-2.34-9.97-.28-10.38.34-11.77,10.61,1.47,2.89,2.28,7.06,4.61,8.25Z"/><path class="cls-1" d="m258.98,85.6c5.76-4.29,9.86-1.13,14.22,2.17,1.73,1.31,4.37,1.41,6.6,2.06.56-2.62,1.71-5.31,1.45-7.85-.17-1.66-2.17-4.14-3.72-4.47-6.25-1.3-12.3-2.37-16.35-8.26-.67-.97-3.95-.45-5.91-.05-.62.13-1.47,2.27-1.19,3.17,1.31,4.15,2.98,8.19,4.88,13.23Z"/><path class="cls-1" d="m1388.8,320.01c-.55-7.33-.88-13.14-1.47-18.92-.39-3.77-1.17-7.5-1.77-11.25-.83-.1-1.67-.19-2.5-.29-1.45,5.91-4.05,11.8-4.1,17.72-.09,11.81,1.22,23.64,1.96,35.55.11,0,1.92-.16,4.2-.34-2.3-9.34-3.72-17.94,3.68-22.46Z"/><path class="cls-1" d="m388.95,509.38c-5.12-2.91-10.68-5.2-15.41-8.64-8.6-6.27-20.48-5.75-28.96,3.05,3.95,1.27,7.25,2.34,11.49,3.7-.4-3.4-.61-5.11-.79-6.68,10.17-2.69,15.39,6.49,23.35,8.4.5.12.86.95,1.22,1.49,4.11,6.04,7.74,6.97,15.77,3.14-2.76-1.86-4.63-3.3-6.66-4.46Z"/><path class="cls-1" d="m1204.04,82.92c2.98-.57,7.46.87,7.4-4.15-.06-4.5-.46-9.31-6.35-10.84-2.41-.63-4.61-2.05-7.19-3.24-3.06,6.79-6.28,13.91-9.63,21.34,5.76-1.14,10.76-2.15,15.77-3.11Z"/><path class="cls-1" d="m1371.82,365.3c-1.64.61-2.87,3-3.66,4.84-.22.51,2.39,3.02,2.67,2.86,1.65-.96,3-2.45,4.1-3.45,3.29.4,6.79,1.85,9.45.91,3.63-1.29,6.63-4.39,10.7-7.28-.24-.81-.88-2.97-1.71-5.78-10.93,4.79-11.54-5.69-16.04-10.5-.7.21-1.41.41-2.11.62.31,2.06.37,4.19.97,6.16,1.55,5.07,1.9,9.32-4.37,11.63Z"/><path class="cls-1" d="m121.37,265.6c-1.93-2.12-5.26-2.96-7.96-4.39-.6.93-1.21,1.86-1.81,2.79,2.23,3.08,4.88,5.94,6.6,9.28,2.71,5.26,6.61,10.8,6.74,16.3.2,8.35,4.82,12.42,10.67,18.17-2.55-8.12-6.13-14.7-6.33-21.38-.24-8.27-2.66-14.99-7.91-20.77Z"/><path class="cls-1" d="m990.6,62.62c.9-1.96,1.45-2.57,1.34-3.01-2.45-10.23-.83-18.74,9.3-24.26.97-.53.64-3.44.91-5.24-1.71-.21-3.82-1.16-5.05-.49-5.14,2.79-10.13,5.9-14.92,9.26-1.39.97-1.92,3.16-2.85,4.8.79.08,1.59.16,2.38.25,2.8,5.9,5.61,11.8,8.89,18.7Z"/><path class="cls-1" d="m1280.56,549.6c.81,1.11,1.78,2.64,2.91,2.88,4.02.83,8.13,1.19,12.21,1.72.51-.23,1.02-.47,1.53-.7-2.15-1.78-4.06-4.61-6.49-5.16-7.51-1.7-8.26-3.12-5.15-10.3,1.44-3.33,1.93-7.21,2.12-10.87.07-1.25-2.48-3.9-3.16-3.69-1.79.54-4.43,2.17-4.59,3.6-.84,7.5-4.75,15.21.62,22.53Z"/><path class="cls-1" d="m420.77,526.96c.8-.41.64-4.97.25-5.08-6.18-1.65-12.55-4.08-18.68-3.64-2.56.19-4.67,6.68-7.18,10.62,12.28,2.38,17.8,2.08,25.61-1.9Z"/><path class="cls-1" d="m1389.91,882.1c3.39,6.18,6.06,11.52,9.31,16.46.48.73,4.58.39,5.57-.73,4.08-4.61,4.71-10.22,3.88-14.48-6.38-.43-11.71-.78-18.76-1.25Z"/><path class="cls-1" d="m1100.27,577.63c-6.31,7.77-6.08,13.75,1.12,22.2,11.23-7.7,10.69-15.59-1.12-22.2Z"/><path class="cls-1" d="m494.38,170.03c3.46-2.42,7.28-4.96,9.27-8.43.63-1.1-3.9-5.31-6.26-7.91-.81-.89-2.22-1.23-3.82-2.06-1.97,3.44-4.26,6.09-4.99,9.12-.56,2.36.44,5.36,1.52,7.72.47,1.03,3.51,2.1,4.27,1.56Z"/><path class="cls-1" d="m1288.88,587.41c2.45.7,4.9,1.4,7.53,2.15.23,4.73,1.67,8.43,8.03,8.22-1.96-6.87,5.94-13.22.12-20.16-5.62,2.57-10.92,4.99-16.23,7.42.18.79.37,1.58.55,2.36Z"/><path class="cls-1" d="m1012.65,56.53c2-1.18,5.32-2.12,5.45-3.41.51-4.7.19-9.54-.33-14.27-.15-1.34-2.08-2.48-3.19-3.71-1,1.17-2.13,2.26-2.96,3.54-1.39,2.14-2.97,4.28-3.77,6.65-.87,2.61-1.56,5.59-1.1,8.19.21,1.17,3.4,1.82,5.9,3.02Z"/><path class="cls-1" d="m1417.14,114.68c.99-.42,2.3-1.78,2.23-2.61-.12-1.56-.91-4.19-1.83-4.38-7.02-1.46-14.14-2.44-22.57-3.79,4.38,8.8,15.71,13.51,22.16,10.78Z"/><path class="cls-1" d="m294.5,169.24c.25.81,1.58,1.06,2.91-.91.31-.46.56-.98.71-1.54-3.03.27-3.87,1.64-3.62,2.45Z"/><path class="cls-1" d="m1031.84,43.39c-.23-4.56-.25-8.7-.69-12.79-.46-4.3-2.91-4.42-5.87-2.15-5.53,4.25-5.79,10.19-.74,17.34,2.17-.72,4.41-1.45,7.29-2.4Z"/><path class="cls-1" d="m1295.2,572.47c.53-1.01-.61-3.53-1.73-4.62-1.93-1.9-4.42-3.24-6.68-4.81-.68.32-1.35.64-2.03.96.54,3.04.76,6.18,1.74,9.07.61,1.8,2.39,3.2,3.64,4.78,1.75-1.76,3.95-3.28,5.05-5.38Z"/><path class="cls-1" d="m1427.04,661.93c2.58-2.43,4.23-4.62.98-7.26-5.72,3.94-10.87,7.49-15.99,11.02,5.7,3.53,7.96,2.88,15.02-3.76Z"/><path class="cls-1" d="m301.53,106.95c-.96.19-1.91.39-2.87.58-1.12,3.23-2.24,6.46-3.36,9.69,4.32.31,8.64.61,12.96.92-2.24-3.73-4.49-7.47-6.73-11.2Z"/><path class="cls-1" d="m778.78,391.07c1.09-4.87-.92-8.72-6.68-10.55-.51,5.02-4.78,9.87,1.02,13.7.9.6,5.33-1.66,5.66-3.15Z"/><path class="cls-1" d="m1288.73,482.93c-8.86,4.28-10.42,10.73-4.81,18.99,1.83-7.21,3.32-13.1,4.81-18.99Z"/><path class="cls-1" d="m394.32,177.75c-4.19-1.25-7.34-2.2-10.5-3.14-.59,2.91-2.5,7.73-1.55,8.38,3.95,2.69,7.67.76,12.05-5.24Z"/><path class="cls-1" d="m801.24,400.61c-4.47.83-8.27,1.54-12.08,2.25-.07.76-.13,1.52-.2,2.28,4.52,1.64,9.04,3.28,14.7,5.33-.97-3.97-1.57-6.38-2.42-9.86Z"/><path class="cls-1" d="m29.77,264.43c-1.34.49-2.42,1.72-4.38,3.2,1.85,1.65,2.89,3.07,3.35,2.91,2.97-1.11,5.93-2.39,8.61-4.06.56-.35-.04-2.58-.11-3.94-2.5.61-5.07,1.03-7.47,1.9Z"/><path class="cls-1" d="m354.6,223.68c-1.32.88-2.11,2.99-2.45,4.68-.14.72,1.47,2.53,2.3,2.54,1.47.02,3.37-.58,4.32-1.62,1.74-1.91,2.91-4.33,4.32-6.54-.51-.56-1.02-1.13-1.53-1.69-2.35.83-4.95,1.29-6.96,2.63Z"/><path class="cls-1" d="m855.36,422.01c.09-.71.18-1.42.27-2.13-3.36-1.22-6.66-2.73-10.13-3.52-1.22-.28-2.85,1.22-4.29,1.91.92,1.24,1.73,3.44,2.78,3.56,3.74.44,7.57.17,11.37.17Z"/><path class="cls-1" d="m426.75,525.48c1.7.76,3.89,2.58,5.01,2.07,3.16-1.44,5.88-3.83,8.77-5.85-.21-.45-.41-.89-.62-1.34-3.33.44-6.75.58-9.95,1.48-1.31.37-2.15,2.38-3.21,3.64Z"/><path class="cls-1" d="m954.15,170.02c2.82-.76,5.64-1.51,8.46-2.27-.69-2.2-1.38-4.4-2.07-6.59-2.61,1.85-5.22,3.7-7.83,5.55.48,1.11.96,2.21,1.44,3.32Z"/><path class="cls-1" d="m1263.24,582.61c7.74-2.74,12.83-9.87,11.7-15.7-4.32,5.79-8.01,10.75-11.7,15.7Z"/><path class="cls-1" d="m787.43,285.26c.59-5.27,1.02-9.1,1.45-12.93-.82-.11-1.64-.22-2.47-.33-5.54,5.09-5.64,6.77,1.01,13.26Z"/><path class="cls-1" d="m1295.83,692.58c5.37-3.76,10.74-7.52,16.12-11.28-.39-.74-.78-1.48-1.16-2.23-5.55,3.65-11.09,7.31-16.64,10.96.56.85,1.12,1.69,1.69,2.54Z"/><path class="cls-1" d="m892.1,416c-3.92,2.44-11.04-.19-12.11,6.79.48.8.96,1.61,1.44,2.41,4.04-2.28,8.07-4.57,12.11-6.85-.48-.78-.97-1.56-1.45-2.34Z"/><path class="cls-1" d="m994.48,57.84c.99.76,1.99,1.53,2.98,2.29,1.93-1.9,3.85-3.8,5.78-5.7-1.64-1.49-3.28-2.97-4.91-4.46-1.28,2.62-2.56,5.24-3.85,7.87Z"/><path class="cls-1" d="m376.74,218.17c1.4.23,2.8.69,4.19.64,1.27-.04,2.59-1.08,3.76-.88,5.09.86,3.99-2.07,3.56-5.34-3.57.77-6.36,1.04-8.86,2.04-1.17.47-1.79,2.32-2.66,3.55Z"/><path class="cls-1" d="m1317.12,631.85c-.39-3.65-.79-7.31-1.18-10.96-1.13.08-2.26.15-3.39.23.18,3.66.35,7.33.53,10.99,1.35-.09,2.7-.18,4.04-.26Z"/><path class="cls-1" d="m251.98,93.13c.25-2.96.49-5.92.74-8.88-1.49-.1-2.98-.21-4.48-.31-.23,2.75-.64,5.51-.49,8.24.02.39,2.75.64,4.23.95Z"/><path class="cls-1" d="m386.2,482.42c.06-4.36,1.98-9.13-5.92-11.2,1.83,4.51-2.51,10.65,5.92,11.2Z"/><path class="cls-1" d="m443.34,320.96c-.43.75-.86,1.5-1.29,2.24,3.37,1.91,6.74,3.82,10.1,5.72.33-.63.67-1.27,1-1.9-2.61-3.2-4.82-7.1-9.82-6.07Z"/><path class="cls-1" d="m376.08,525.52c3.35,1.77,6.69,3.53,10.04,5.3.53-1.09,1.07-2.17,1.6-3.26-3.35-1.72-6.71-3.44-10.06-5.16-.53,1.04-1.05,2.08-1.58,3.12Z"/><path class="cls-1" d="m375.33,487.16c2.38.85,3.15,6.82,6.75,3.04-1.13-3.19-2.06-5.84-3.85-10.91-1.29,3.5-2.1,5.68-2.91,7.87Z"/><path class="cls-1" d="m1303.28,571.45v-13.8c-5.38,1.52-5.15,7.75,0,13.8Z"/><path class="cls-1" d="m460.1,351.01c.76-.18,1.52-.35,2.27-.53-.63-3.63-1.26-7.25-1.89-10.88-.97.05-1.94.1-2.91.15v6.21l-.21-.24c.02.06.03.12.05.19.02,0,.03.01.05.02.88,1.7,1.76,3.39,2.63,5.08Z"/><path class="cls-1" d="m249.6,128.42c-.23.61-.45,1.22-.68,1.83,1.67,1.89,3.34,3.78,5,5.68.72-.18,1.43-.37,2.15-.55-.15-2.18.41-4.88-.68-6.36-.77-1.05-3.78-.45-5.79-.59Z"/><path class="cls-1" d="m458,569.4c-1.64.9-3.28,2.37-4.03,4.02-.32.71,1.54,2.42,3.23,4.83,1.85-3.04,3.1-4.85,3.95-6.83.1-.23-2.59-2.32-3.14-2.02Z"/><path class="cls-1" d="m471.51,560.76c.04-1.31.07-2.62.11-3.93-2.73,1.7-5.46,3.4-8.39,5.23,5.23,6.43,5.53-1.56,8.27-1.3Z"/></svg>
