<?xml version="1.0" encoding="UTF-8"?>
<svg xmlns="http://www.w3.org/2000/svg" viewBox="0 0 5888.67 3461.8">
    <defs>
        <style>
            .cls-1 {
                fill: #bfeaf3;
            }
        </style>
    </defs>
    <path class="cls-1" d="m5783.66,650.52c-9.71-6-21.94-7.95-33.12-11.54-13.99-4.51-29.11-6.89-41.82-13.75-56.46-30.46-112.66-61.02-178.11-67.71-24.76-2.53-29.85,1.65-32.21,24.41-.7,6.72-5.06,13.06-7.75,19.58-6.27-3.44-12.49-6.99-18.82-10.31-14.79-7.75-28.88-18.93-44.63-22.35-31.11-6.74-62.95-7.96-90.89,18.78-4.65-10.94-7.67-18.31-10.9-25.58-15.1-33.99-30.55-42.59-67.03-37.47-17.12,2.4-34.31,6.77-51.35,6.31-9.4-.25-23.78-6.41-26.99-13.79-17.32-39.8-32.66-35.81-64.76-28.71-18.3,4.05-32.14,2.04-42.5-18.11-17.94-34.88-36.53-34.11-55.98.02-3.24,5.69-6.21,12.75-5.91,19.01,1.1,22.82-13.24,26.35-30.68,25.92-13.54-.33-27.41-.3-40.5-3.24-25.95-5.82-48.64-6.49-58.72,33.39-17.45-20.19-36.06-32.97-41.49-49.96-9.09-28.45-53.45-56.95-80.65-44.62-3.12,1.41-6.51,4.73-7.51,7.88-6.68,21.08-21.59,18.85-38.33,15.25-35.87-7.72-72.11-13.8-107.83-22.11-10.05-2.34-18.5-10.88-28.34-15.03-6.24-2.64-13.78-3.62-20.56-3.11-4.95.37-9.62,4.4-14.41,6.8-1.18-1.45-2.36-2.9-3.54-4.36,5.52-6.3,10.13-13.91,16.79-18.58,9.16-6.42,21.88-8.65,29.35-16.31,7.3-7.48,14.5-20.15,13.23-29.38-1.11-8.1-12.96-18.29-21.97-20.85-11.69-3.32-25.26-.05-38.02.5-13.98.6-27.96,1.34-41.94,2.02,1.3-1.91,2.6-3.83,3.9-5.74-5.86-9.51-10.11-25.34-17.89-27.32-21.08-5.38-43.27-4.38-60.75,13.7-4.83,5-12.66,6.98-18.81,10.83-6.59,4.13-12.45,9.57-19.31,13.11-8.34,4.31-17.35,9.98-26.16,10.16-14.07.28-29.54-8.19-42.11-4.69-47.73,13.28-94.69,29.44-141.49,45.81-5.94,2.08-14.01,13.03-12.81,17.78,4.05,16.05-5.49,16.26-15.68,17.3-15.95,1.63-31.9,3.12-49.94,4.87,5.85,15.61,9.99,26.68,14.14,37.75-1.7,1.48-3.4,2.97-5.09,4.45-7.36-3.87-15.25-6.99-21.97-11.75-29.58-20.95-41.54-17.72-56.25,15.74-1.33,3.02-3.71,5.59-9.75,14.47-4.32-12.84-6.59-20.39-9.41-27.73-2.2-5.72-5.1-11.16-7.69-16.73-4.35,5.12-12.44,10.26-12.42,15.37.11,26.86,1.66,53.76,3.89,80.54,1.81,21.65,8.31,43.29,7.34,64.69-1.62,35.95-41.38,61.09-73.87,46.75,8.4-4.77,17.07-7.3,22.06-13.04,9.41-10.82,22.55-22.98,23.62-35.48,2.15-25.15.64-51.82-5.88-76.11-4.94-18.38-8.48-34.08-.69-51.92,4.59-10.52,2.3-20.54-11.69-20.59-19.49-.07-37.65,4.03-47.86,23.67-5.56,10.68-11.28,21.29-17.35,31.68-9.33,15.98-9.16,31.03,1.89,46.42,7.4,10.31,13.26,21.72,19.8,32.64-48.78-6.35-83.47-49.57-135.62-37.41,2.58,7.64,4.8,14.25,7.44,22.06-33.22,2.97-64.39,5.76-96.98,8.68-13.94-19.18-21.93-20.89-44.16-6.1-13.8,9.18-27.5,18.67-40.23,29.24-26.02,21.6-25.73,21.93-42.04-8.02-1.07-1.97-2.19-4.84-3.9-5.39-7.59-2.47-16.32-7.41-22.94-5.52-9.77,2.79-15.59,10.52-8.39,22.86,8.1,13.89-1.14,21.51-12.53,28.56-18.41,11.39-35.78,24.46-54.1,36.02-15.08,9.51-30.19,19.62-46.6,26.14-14.07,5.59-24.88-2.43-28.8-17.22-3.52-13.28-6.15-26.79-10.56-46.32,18.1,5.66,33.24,10.33,48.34,15.14,19.55,6.23,47.08-5.05,52.84-23.66,6.51-21.05-11.34-27.55-25.12-33.95-29.34-13.64-59.84-24.82-89-38.82-11.28-5.42-19.92-16.14-30.29-23.73-11.13-8.16-22.68-21.8-34.36-22.14-78.9-2.29-157.1.11-206.27,77.96-5.58,8.84-14.16,15.74-20.14,24.38-20.52,29.6-43.31,58.13-59.73,89.91-11.47,22.19-23.79,38.78-47.55,47.31-18.64,6.69-38.53,16.03-41.14,37.92-3.08,25.78-2.59,52.26-.76,78.23,1.16,16.47,14.66,24.31,29.64,17.53,19.6-8.87,37.52-21.44,57.99-33.5.7,1.37,4.91,6.8,6.38,12.88,6.26,26.07,11.2,52.47,17.8,78.44,1.85,7.26,7.74,13.5,11.78,20.21,6.53-4.62,13.68-8.58,19.43-14.02,8.15-7.71,14.03-18.4,23.13-24.38,13.41-8.81,17.18-19.5,15.03-34.42-1.99-13.81-1.08-25.63,13.73-34.68,22.95-14.02,22.62-21.01,3.43-40.41-18.94-19.15-20.78-50.15-1.94-60.77,23.63-13.32,37.33-33.26,49.71-56.51,5.87-11.01,19.81-20.7,32.07-24.37,9.43-2.82,21.96,4.7,33.11,7.62-5.13,7.49-9.04,16.36-15.61,22.25-31.51,28.28-56.61,57.45-44.33,105.43,9.13,35.68,6.85,35.1,41.1,19.34,19.99-9.19,42.84-13.05,64.84-16.47,6.8-1.06,15.06,7.21,22.65,11.21-5.92,5.94-11.04,15.52-17.94,17.06-14.99,3.34-30.93,2.2-46.41,3.64-8.49.79-18.68.84-24.48,5.63-2.96,2.45,2.32,14.55,3.46,22.35,1.25,8.64,4.79,18.35,2.12,25.7-2.12,5.82-12.11,8.78-18.61,13.01-2.24-5.71-5.53-11.26-6.46-17.18-1.13-7.21-.27-14.74-.27-25.55-23.39,18.73-36.45,63.32-28.07,85.77-11.99,7.96-23.22,18.5-36.53,23.47-15.73,5.88-33.22,7.15-50.02,10-7.89,1.34-15.93,2.13-23.93,2.38-12.66.39-25.33.1-38,.1-27.5-11.71-29.17-16.99-21.8-46.21,4.47-17.69,6.71-35.95,10.42-56.58-47.84,22.94-49.3,27.46-35.46,72.26,4.25,13.77,4.19,28.86,6.68,47.75-59.05-11.35-72.73,51.02-116.7,61.72-2.31.56-2.54,7.27-5.11,9.65-9.23,8.55-18.74,16.87-28.74,24.5-7.16,5.46-15.28,9.68-22.97,14.45.73,1.31,1.45,2.62,2.18,3.93-15.51,2.01-31.02,4.03-49.06,6.37,2.89,6.78,3.7,12.31,6.87,15.5,14.46,14.5,29.98,27.96,44.36,42.53,16.19,16.41,19.83,42.83,4.05,61.99-5.35,6.5-23.79,2.73-36.25,2.74-25.24.02-50.54-1.51-75.68-.06-4.42.26-12.93,13.4-11.47,18.07,7.96,25.45,6.42,49.58.47,75.37-3.48,15.1-.02,33.13,5.17,48.17,1.75,5.07,18.44,4.9,28.26,7.32,2.88.71,5.85,1.67,8.35,3.21,28.81,17.74,52.43,15.57,75.14-8.73,11.12-11.9,30.05-27.14,28.38-38.32-4.53-30.4,19.67-37.79,32.56-54.41,6.89-8.88,14.75-18.18,17.85-28.57,4.86-16.29,17.39-25.8,29.44-19.45,24.57,12.95,37.24-1.84,53.36-13.99,4.23-3.19,15.48-3.07,19.12.29,6.23,5.74,8.29,15.72,13.36,23.05,9.74,14.06,17.51,32.75,31.17,40.17,33.93,18.43,58.69,38.88,49,83.66,8.13-8.53,16.53-17.11,18-26.75,1.48-9.73-3.91-20.51-7.33-35.31,12.9,5,19.42,7.52,29.59,11.46-3.74-6.96-4.79-11.68-7.74-13.99-28.91-22.74-59.02-43.52-79.91-75.51-10.45-16-10.82-29.61,5.29-39.39,11.19,6.8,25.86,10.47,29.82,19.08,12.4,26.91,34.73,40.42,58.73,53.63,13.47,7.41,25.59,16.53,16.18,35.84-1.87,3.84,2.52,11.03,4.61,16.44,7.75,20.1,15.19,40.36,24.01,60,2.54,5.65,10.91,14.17,13.87,13.19,11.74-3.91,23.95-9.5,32.52-17.97,2.64-2.61-5.6-16.45-9.18-25-1.14-2.72-4.18-4.77-4.9-7.51-1.98-7.52-3.2-15.25-4.72-22.89,14.5.14,19.36-27.71,37.11-14.61,22.23,16.41,36.48-.19,56.27-8.88-24.84-19.48-21.81-37.69-4.93-59.03,14.08-17.8,23.31-39.38,36.39-58.1,3.01-4.31,17.05-7.15,19-4.81,5.9,7.07,11.03,16.85,11.59,25.87,1.11,17.84,8.87,28.39,20.91,23.34,16.34-6.87,25.5-29.94,15.49-52.97h34.38c-.7,8.43.13,17.37-2.47,25.16-3.92,11.76-3.32,19.31,8.9,25.91,17.09,9.22,33.65,19.74,49.13,31.43,5.52,4.17,11.56,15.17,9.63,19.87-2.73,6.66-12.7,14.62-19.46,14.52-17-.26-36.28-.48-50.46-8.31-46.91-25.9-82.69,4.47-120.9,20.76-13.89,5.92-25.9,17.59-36.84,28.57-6.28,6.31-11.82,16.37-12.13,24.94-.5,13.85,43.81,49.63,57.99,49.14,30.02-1.04,60.03-2.31,90.27-3.5-6.59,36.63-13.77,76.58-19.97,111.06-22.41,0-46.45-6.81-62.86,1.48-30.12,15.22-53.62,5.8-78.82-6.72-14.16-7.03-27.35-16.24-41.92-22.16-23.52-9.56-35.34-.01-38.02,24.83-1.34,12.44-8.6,24.24-13.82,38-20.85-19.1-35.58-35.08-52.83-47.59-12.66-9.18-28.1-15.56-43.24-19.95-12.72-3.69-27.14-1.21-40.18-4.19-14.31-3.27-21.38-22.33-11.07-29.46,24.54-16.95,7.18-39.42,13.13-57.14-51.23,2.2-99.95,3.19-148.42,7.15-12.19,1-26.12,9.1-34.83,18.18-16.41,17.1-33.72,20.84-56.81,19.19-14.31-1.02-30.78,7.55-43.85,15.72-12.94,8.09-22.93,20.96-34,31.95-12.21,12.14-21.31,25.78-13.83,43.83,8.87,21.43-8.67,57.19-31.64,57.73-17.26.4-21.87,10.44-27.35,21.8-18.32,37.98-37.16,75.76-53.71,114.52-3.46,8.1-.84,21.78,4.03,29.83,10.46,17.29,19.66,74.7,6.84,85.95-24.84,21.81-21.97,40.37-8.74,68.41,10.22,21.67,20.13,40.46,38.12,56.21,8.32,7.29,18.63,20.35,17.23,29.07-3.21,20.02,6.68,29.37,19.92,39.04,10.96,8,25.43,14.14,31.78,24.96,21.63,36.85,53.13,29.09,85.16,22.96,6.66-1.27,13.34-2.72,20.08-3.22,27.31-2,52.91-5.69,74.37-26.88,13.65-13.48,52.4-6.96,56.2,8.97,6.7,28.08,25.27,23.72,44.6,23.61,23.72-.14,37.37,12.69,34.36,34.49-2.83,20.43-9.97,40.22-14.02,60.54-1.47,7.39-2.03,16.9,1.38,22.99,12.42,22.14,25.25,44.35,40.63,64.47,21.99,28.78,31.2,60.23,28.58,95.91-.42,5.77-.08,13.2,3.14,17.35,13.76,17.75,4.98,31.78-4.66,47.15-7.1,11.33-12.2,24.03-17.19,36.53-20.78,52.1,4.43,94.85,27.29,138.79,7.52,14.45,9.82,32.09,12.2,48.61,3.39,23.54.24,48.93,7.83,70.76,12.5,35.96,31.45,69.66,47.41,104.44,1.45,3.16,2.57,8.52.95,10.73-15.47,21.1,3.43,34.95,10.58,50.91,5.95,13.27,15.67,15,29.81,9.65,19.45-7.36,40.11-15.78,60.32-15.96,33.92-.3,55.08-15.68,71.13-43.06,20.2-34.45,40.58-68.82,61.83-102.63,8.91-14.17,13.48-25.49-7.12-31.35,1.17-17.81,11.3-22.32,25.86-23.39,28.63-2.1,38.19-13.61,31.5-41.23-4.35-17.94-11.97-35.43-20.53-51.88-6.72-12.91-5.18-18.3,7.54-26.48,26.71-17.17,51.74-37.06,76.78-56.69,4.77-3.74,8.67-11.25,9.18-17.34,3.65-43.74,6.52-88.21-13.72-128.72-16.36-32.75-11.69-65.28-6.36-98.3,6.58-40.74,40.88-63.54,63.75-93.52,26.24-34.41,64.64-58.79,80.62-102.02,10.61-28.69,25.09-55.96,37.92-83.83,7.51-16.31,14.5-32.6,5.76-51.03-24.81,5.15-48.28,9.76-71.59,15.03-6.53,1.48-12.66,4.81-18.9,7.45-22.02,9.31-28.6,5.58-37.01-16.56-6.55-17.25-12.91-35.9-24.47-49.6-18.55-21.97-39.48-41.31-44.28-71.75-.95-6.03-7.5-11-10.71-16.88-5.54-10.16-12.63-20.14-15.24-31.11-5.23-22.01,0-47.13-24.03-62.64-4.72-3.05-5.1-13.69-6.39-21.02-4.89-27.75-12.45-53.74-32.47-75.5-8.33-9.05-11.47-22.87-16.97-34.52,3.11-2.35,6.21-4.69,9.32-7.04,5.69,10.35,11.38,20.7,18.03,32.78,7.4-9.17,10.52-13.03,11.05-13.68,12.66,24.14,23.24,51.88,40.41,74.67,14.17,18.81,22.85,37.62,28.57,60.02,4.24,16.61,12.03,35.22,24.28,46.2,18.34,16.44,27.46,34.42,30.51,57.96,3.17,24.42,9.06,48.48,12.88,72.83,2.23,14.19,10.61,17.2,22.53,14.47,8.77-2.01,18.17-3.79,25.69-8.33,65.95-39.76,139.26-70.07,182.19-139.9,2.72-4.42,6.85-7.98,10.34-11.93,16.7-18.91,19.47-44.13.21-57.87-19.49-13.9-33.87-29.54-43.73-50.51-.39-.83-2.68-.75-5.33-1.4-6.46,7.45-12.11,17.04-20.43,22.74-8.59,5.88-20.33,11.68-29.58,10.27-5.09-.77-7.67-16.58-11.84-25.39-4.1-8.65-6.68-21.34-13.6-24.71-20.28-9.86-30.26-26.17-37.47-45.72-6.35-17.19.32-27.07,16.73-32.04,2.46,2.1,4.59,3.26,5.8,5.05,15.13,22.17,28.42,45.93,45.97,65.97,7.34,8.37,23.4,10.33,35.96,12.48,9.24,1.58,25.52-5.25,27.91-1.49,17.38,27.34,44.55,27.04,71.29,29.58,8.54.81,16.93,3.15,25.42,4.52,27.01,4.35,66.43-22.09,74.18,29.99.09.62.86,1.48,1.46,1.64,16.26,4.3,13.7,18,15.95,30.05,4.62,24.66,20.11,30.38,40.78,16.19,5.05-3.47,10.37-6.53,19.16-12.02,0,12.82-.04,20.87,0,28.92.15,22.46-4.24,46.16,1.39,67.16,15.92,59.37,35.66,117.72,54.58,176.26,4.61,14.27,13.41,11.4,21.92,2.33,29.96-31.94,42.3-70.41,40.14-113.38-.95-18.83.11-34.18,21.13-41.58,5.62-1.98,13.06-8.48,13.61-13.56,2.82-25.78,22.29-37.35,39.09-52.45,10.02-9.01,15.3-23.22,22.94-34.95,3.93-6.03,8.91-17.07,12.5-16.71,20.84,2.07,39.38.5,49.77-19.96,12.08,20.3,22.38,37.6,30.88,51.86,0,8.91-.94,16.43.21,23.62,1.88,11.75,6.48,23.15,7.53,34.92,3.04,33.96,12.48,39.03,42.23,20.27,28.34,43.2,42.78,88.74,28.37,140.73-1.66,5.99,2.08,13.89,4.46,20.5,9.08,25.18,19.52,49.91,27.76,75.35,8.44,26.05,21.21,47.16,55.77,59.85-9.9-41.48-10.54-81.64-39.53-107.62-44.7-40.05-27.85-84.72-20.5-135.19,22.78,26.66,43.22,48.61,61.22,72.41,10.53,13.92,21.04,15.44,34.84,8.09,7.96-4.24,15.92-8.66,23.25-13.88,32.36-23.02,35.94-33.57,20.27-70.27-13.02-30.5-26.66-60.91-42.63-89.93-10.4-18.9-8.09-32.32,7.63-45.39,11.76-9.78,23.14-20.01,38.25-33.14,2.24,9.87,6.48,18.83,5.5,27.17-.86,7.38-9.2,13.63-11.22,21.18-2.71,10.15-3.47,21.14-2.86,31.64.13,2.33,11.69,7.31,14.11,5.6,7.89-5.59,16.69-12.64,20.03-21.14,3.47-8.86,3.35-20.71.69-30.08-6.88-24.25-3.8-27.76,20.78-36.24,27.38-9.44,62.32-16,78.02-36.2,30.28-38.98,52.22-85.42,72.04-131.19,13.32-30.76-8.06-59.73-20.5-87.66-18.71-41.98-18.09-45.39,20.96-69.91,1.9-1.19,4.77-1.41,5.99-3.01,2.9-3.79,5.07-8.13,7.54-12.24-4.64-2.69-9.34-7.71-13.92-7.6-9.61.23-20.11,1.2-28.53,5.36-17.89,8.83-20.84-4.98-25.67-15.27-5.61-11.97-1.43-18.85,11.67-23.68,9.79-3.61,18.45-11.5,26.23-18.93,6.69-6.39,11.42-14.82,19.81-26.1,5.15,23.82,15.67,34.86,36.68,33.91,4.18-.19,11.31,6.12,12.61,10.7,8.22,28.92,31.26,54.4,19.8,88.21-2.76,8.15-1.18,19.53,13.62,15.86,36.03-8.92,48.85-49.39,24.55-77.31-5.44-6.24-13.3-11.73-15.6-18.98-2.51-7.88-3.21-19.92,1.16-25.77,17.82-23.85,37.87-46.03,53.16-64.16,18.08-1.92,39.69,2.35,47.74-6.18,38.7-41.03,76.65-83.86,88.99-141.73,5.62-26.35,10.74-52.93,13.74-79.67,1.47-13.06-1.13-27.04-4.3-40.01-3.04-12.44-12.58-19.69-25.82-14.5-22.3,8.75-36.23-5.84-54.3-15.23,3.86-4.93,5.92-7.95,8.36-10.62,29.34-32.02,58.84-63.91,88.08-96.02,13.92-15.29,30.88-21.16,50.93-17.02,11.04,2.28,21.72,6.24,32.68,8.91,14.9,3.63,30.83,11.93,40.23-10.02,1.09-2.54,12.37-2.61,17.72-.61,2.62.98,3.25,9.33,3.3,14.36.03,3.09-2.74,6.22-4.44,9.72,40.34,7.8,69.93-7.76,63.34-33.45,31.48-11.53,41.67-66.07,91.03-42.93v21.52c6.66-1.46,11.43-2.51,16.19-3.55,1.63,2.16,3.27,4.31,4.9,6.47-24.15,23.12-46.76,48.19-72.9,68.77-23.22,18.28-35.37,39.16-30.1,67.09,4.33,22.94,8.1,45.98,12.23,68.96,2.71,15.08,5.64,30.12,8.47,45.18,2.51.7,5.01,1.4,7.52,2.09,24.27-37.81,65.98-63.56,72.12-114.11.91-7.51,5.03-19.19,10.22-20.83,20.44-6.43,16.72-19.48,12.87-33.89-5.77-21.59-7.37-45.92,13.41-57.32,26.91-14.77,54.17-38.67,89.83-20.37,3.85,1.97,10.96,1.45,14.71-.88,22.76-14.16,44.22-30.58,67.67-43.41,14.48-7.93,31.41-13.49,47.78-15.34,21.52-2.43,28.33-11.43,17.43-30.49-4.59-8.02-9.91-15.61-15.21-23.88q33.74-14,43.26-45.59c7.63,5.27,15.4,14.99,21.4,14,22.76-3.76,33.54,11.53,47.63,23.67,18.03,15.54,31.55,10.66,41.59-11.3,2.71-5.93,9.56-10.13,14.92-14.65,5.97-5.04,17.59-9.7,17.44-14.22-.25-7.38-6.45-17.08-13.02-21.14Z" />
    <path class="cls-1" d="m2260.49,2299.96c-8.19,1.64-19.55-6.15-27.6-12.18-6.28-4.7-10.06-13.04-14.27-20.16-8.25-13.97-18.77-18.09-34.04-10.78-4.72,2.26-11.59,2.45-16.7.96-10.61-3.1-20.7-7.96-35.44-13.87,8.38-27.23-13.56-30.93-37.07-33.44-3.55-.38-7.33-2.37-10.22-4.62-15.9-12.39-31.49-11.81-47.6-.29-2.88,2.06-7.42,1.79-15.18,3.45,3.74-7.21,5.21-10.97,7.44-14.2,12.12-17.49,35.61-33.62,5.58-55.6-2.3-1.68-2.21-6.97-2.75-10.66-4.37-29.72-19.58-45.17-49.17-49.64-12.66-1.91-26.3-1.32-37.78-6.04-13.16-5.41-25.61-14.13-36.24-23.76-21.65-19.63-41.43-41.32-63.07-60.97-3.79-3.44-13.3-2.64-19.48-1.06-27.28,6.95-50.24-4.8-72.59-16.75-20.96-11.2-33.47-5.53-34.3,18.02-.13,3.76,1.09,8.05-.35,11.16-1.93,4.18-5.84,7.45-8.9,11.11-3.43-4.2-9.07-8.08-9.74-12.69-.92-6.34,1.98-13.21,3.15-19.87,1.64-9.39,3.19-18.8,5.32-31.36-32.78,23.45-65.46,38.09-77.8,61.64-24.76-1.58-41.95-5.71-58.01-3.05-29.54,4.9-58.87-18.82-54.82-48.92,2.8-20.83,8.42-41.26,12.52-61.93,3.28-16.56-3.18-24.18-20.59-22.64-18.02,1.59-36.11,2.82-54.19,3.12-17.83.3-23.58-8.16-12.3-21.93,18.5-22.57,15.84-49.53,20.84-74.9,2.93-14.85-6.03-19.18-18.96-15.72-17.35,4.65-27.49,16.39-33.69,33.4-8.94,24.53-63.19,36.77-77.88,15.52-14.91-21.58-27.67-47.73-31.22-73.29-4.26-30.69,1.69-62.92,4.22-94.4,1.55-19.34,10.94-33.13,30.12-41.14,29.77-12.44,59.13-21.62,93.67-1.58-7.36-30.61,5.35-36.12,26.98-33.21,9.62,1.3,19.58-.05,29.37.24,30.06.88,34.96,6.64,40.67,36.7,3.57,18.8,9.12,37.8,17.53,54.86,3.98,8.07,16.75,11.8,25.53,17.5,3.36-10.23,8.45-20.29,9.51-30.76.77-7.69-3.45-16-5.96-23.87-4.8-15.05-10.53-29.81-14.86-44.98-8.73-30.62-.26-55.08,27.54-68.53,40.98-19.83,67.41-45.76,60.85-96.2-2.62-20.12,3.91-41.59,27-49.83,35.62-12.72,55.3-35.24,57.52-74.81.68-12.14,12.57-26.95,23.51-34.33,11.85-8,28.59-8.75,46.18-13.47-2.62,8.76-5.93,16.15-6.73,23.8-.52,4.99,2.6,10.37,4.09,15.57,5.02-1.73,10.75-2.44,14.94-5.36,17.07-11.89,32.47-26.91,50.84-36.01,14.94-7.41,20.65-15,15.97-30.19-8.24-2.58-16.36-6.48-24.77-7.3-35.11-3.41-33.94-2.81-27.51-35.93,1.68-8.66-4.43-21.84-11.34-28.1-4.58-4.15-19.32-2.9-25.38,1.55-13.78,10.11-24.71,24.01-37.42,35.71-5.06,4.66-11.75,7.54-17.69,11.24-2.15-2.09-4.29-4.18-6.44-6.26,5.95-9.49,10.53-20.29,18.09-28.25,32.39-34.07,68.48-59.14,119.14-41.64.68.23,1.5.05,2.25.07,18.08.54,34.46-1.21,42.56-21.63,2.08-5.24,9.69-8.28,14.76-12.32,1.82,1.19,3.65,2.38,5.47,3.58-2.28,10.67-3.46,21.73-7.09,31.92-5.8,16.24-13.95,31.63-19.79,47.85-7.02,19.49-1.72,25.78,18.48,21.03,18.44-4.34,34.78-1.86,48.53,10.69,10.39,9.48,19.14,14.66,29.7.75,12.12-15.97,11.07-29.03-4.06-39.97-17.52-12.66-35.17-25.15-55.07-39.36,3.89-3.35,11.81-7.32,15.1-13.68,4.65-9,10.47-21.29,7.72-29.48-7.83-23.36-19.91-45.27-29.96-67.91-5.79-13.03-15.25-18.49-28.97-14.74-14.95,4.09-23.11-2.76-31.94-14.26-12.77-16.62-13.64-32.15-.37-50.21-29.18-16.98-40.35-43.88-47.33-75.89-12.19,10.86-21.28,22.02-29.17,33.99-6.44,9.77-9.78,25.19-25.74,18.08-13.91-6.2-31.45-13.22-27.23-33.71,4.18-20.29,5.38-35.64-22.43-35.56-5.59.02-10.82-7.81-16.86-10.66-18.12-8.57-36.06-18.09-55.08-23.93-9.12-2.8-28.51-.33-29.53,3.46-4.89,18.1-27.09,32.97-11.4,56.17,4.26,6.3,4.72,21.04.29,26.18-11.1,12.89-7.61,21.57.76,33.3,24.57,34.43,23.14,48.02-8.64,74.4-13.72,11.39-16.4,21.4-5.35,36.1,5.22,6.94,7.07,16.42,10.36,24.79,7.53,19.19-5.88,28.16-18.94,35.8-13.98,8.18-20.63-3.62-26.44-13.19-4.6-7.57-10.43-16.17-10.51-24.37-.28-28.93-17.28-45.15-39.49-58.76-12.85-7.87-25.61-15.98-37.73-24.92-21.88-16.14-43.24-32.09-72.64-32.46-6.14-.08-15.82-9.08-17.42-15.57-2.93-11.85-4.09-21.94-19.37-22.94-2.95-.19-8.16-6.2-7.87-9.06,2.23-21.84,2.75-44.48,9.4-65.06,6.1-18.88,19.18-35.51,31.42-57.06,41.48,3.61,68.45-19.21,77.82-65.79,3.18-15.79,10.4-26.32,31.68-15.74,26.02,12.93,46.48-3.55,45.12-32.36-.34-7.31-1.34-15.73,1.64-21.85,11.51-23.57,12.05-23.2-13.27-27.96-7.4-1.39-14.59-4.62-21.98-5.02-5.03-.27-13.05,1.41-14.89,4.82-8.19,15.19-14.18,31.55-21.97,46.99-2.65,5.25-8.24,9-12.49,13.44-4.27-4.79-9.79-8.99-12.43-14.55-2.45-5.16-2.26-11.77-2.49-17.76-1.21-32.42-5.88-37.02-37.06-33.4-13.28,1.54-17.9-1.64-15.35-16.03,1.2-6.79-1.62-18.08-6.6-21.48-16.1-10.98-33.95-19.45-51.49-28.15-1.44-.71-6.09,3.84-8.55,6.58-17.43,19.43-13.99,37.9,9.23,50.57,23.85,13.02,28.63,23.35,18.81,37.28-7.5,10.64-12.09,23.45-20.17,33.53-3.95,4.93-17.5,9.66-18.89,7.98-13.11-15.77-30.68-13.04-47.78-15.18-21.47-2.69-42.46-9.01-63.82-12.81-17.61-3.13-35.41-6.09-53.23-6.88-16.51-.73-22.51,8.74-18.83,25.21,1.25,5.62-.92,12-1.53,18.03-5.58-1.19-11.24-2.06-16.71-3.63-21.36-6.12-42.94-11.63-63.86-19.01-12.64-4.46-24.33-11.71-36.22-18.13-13.01-7.02-24.96-18.09-38.76-21.16-47.57-10.58-95.75-18.39-143.67-27.38-20.88-3.92-41.45-7.35-61.44,4.32-14.14,8.26-28.23,17.85-46.45,10.3-2.96-1.23-10.55,1.62-11.79,4.43-12.18,27.78-27.12,22.27-45.34,5.88-6.36-5.72-15.98-9.11-24.64-10.76-36.15-6.88-72.48-12.75-108.77-18.87-35.5-5.99-71.97-8.56-106.34-18.45-60.97-17.54-113.85-7.92-161.65,33.95-10.2,8.94-24.17,13.45-35.81,20.93-6.49,4.17-11.77,10.23-17.6,15.44,4.82,4.92,8.92,11.01,14.62,14.5,8.27,5.06,18.78,6.78,26.36,12.53,13.63,10.33,25.8,22.6,38.58,34.05-1.75,2.71-3.49,5.42-5.24,8.12-13.88-4.42-27.79-8.75-41.63-13.28-22.11-7.24-36.88-1.88-42.66,15.64-5.77,17.45,4.67,34.27,26.3,39.75,8.38,2.12,17.74,1.63,26.48.7,12.23-1.3,24.31-4.13,36.62-6.34,2.74,31.53-2.74,40.11-27.56,49.51-14.04,5.32-27.73,11.6-41.41,17.79-17.08,7.73-16.03,19.68-3.67,29.58,12.77,10.22,28.6,16.55,41.79,26.33,8.42,6.24,19.96,15.23,20.61,23.71,1.97,25.53,14.67,23.36,32.19,17.68,14.81-4.79,30.09-8.14,45.16-12.13.95,2.44,1.9,4.88,2.84,7.32-30.16,50.87-74.94,86.25-127.27,115.36,11.98,2.17,21.33-.03,30.47-2.9,55.5-17.45,96.93-56.76,140.92-91.86,5.85-4.67,9.52-14.58,10.38-22.47,2.09-19.23,12.22-34.91,30.68-41.49-3.57,12.63-6.99,24.72-10.4,36.81,1.71,1.23,3.42,2.45,5.12,3.68,16.88-10.65,40.98-17.49,49.05-32.79,14.13-26.79,26.04-15.3,42.82-7.49,18.75,8.73,38.29,19.1,58.25,21.1,28.79,2.88,57.08,2.59,80.57,23.13,4.15,3.63,11.56,6.29,16.82,5.43,25.1-4.11,37.17,11.68,48.01,29.62,9.33,15.43,21.34,30.19,26.56,46.99,17.16,55.19,62.13,98.05,68.79,157.59.08.72.48,1.43.83,2.1,28.88,53.82,38.32,112.31,40.22,172.29,2.02,63.82,27.29,118.26,65.85,167.3,5.99,7.62,17.38,10.76,25.34,17.13,9.99,7.99,20.95,15.89,27.88,26.25,6.45,9.64,8.59,22.34,11.9,33.9,15.94,55.57,41.35,106.65,73.39,154.51,5.43,8.11,13.04,14.77,19.64,22.1,2.68-1.48,5.36-2.96,8.04-4.44-3.27-9.36-5.42-19.32-10.01-27.98-21.84-41.2-44.7-81.86-66.31-123.18-4.27-8.18-4.6-18.42-6.74-27.71,2.23-.94,4.47-1.89,6.7-2.83,4,3.75,8.95,6.89,11.84,11.36,39.74,61.3,79.39,122.66,118.45,184.4,4.59,7.26,8.8,17.38,7.54,25.28-4.5,28.19,10.83,44.88,31.79,57.11,31.11,18.16,63.54,34.06,95.26,51.19,17.54,9.47,33.95,12.61,51.81-14.01,7.12,10.51,12.32,18.62,17.95,26.42,16.22,22.48,37.82,36.46,65.63,39.3,19.32,1.97,31.29,13.96,35.01,30.62,6.93,31.1,25.06,50.89,51.58,66.87,19.98,12.04,36.33,21.49,58.46,3.39,14.91-12.2,27.4-5.5,34.11,12.39,7.07,18.83,8.56,35.74,5.29,57.22-4.95,32.55-18.82,57.48-38.9,80.28-22.96,26.08-24.9,37.79-8.38,66.39,3.11,5.39,2.27,19.21-1.34,21.33-23.46,13.8-18.06,29.6-6.26,47.29,5.83,8.74,12.05,17.49,16.09,27.08,17.47,41.48,34.11,83.31,51.25,124.93,5.25,12.75,8.44,27.79,17.37,37.25,14.84,15.71,32.32,29.85,50.95,40.82,23.8,14.02,30.1,33.7,28.44,58.95-3.11,47.38-5.34,94.83-8.79,142.19-.8,10.99-5.4,21.65-7.6,32.6-2.76,13.76-5.96,27.58-6.98,41.52-1.37,18.72,1.25,37.89-1.54,56.31-6.09,40.15-14.8,79.89-21.86,119.9-2.72,15.43-4.88,31.1-5.47,46.73-.54,14.19-3.31,31.22,3.1,42.21,21.21,36.35-.85,69.73-3.19,104.22-.87,12.81-11.22,25.62-10.15,37.81,3.94,44.86,9.74,89.65,17.14,134.09,3.64,21.86,23.79,34.5,46.21,35.31,11.86.43,24.63.05,35.28,4.32,17.91,7.18,31.21.89,45.48-7.69-1.43-2.7-1.81-4.35-2.84-5.15-1.75-1.35-3.81-2.72-5.93-3.12-29.77-5.71-45.73-23.96-49.82-53.62-.59-4.26-2.84-8.71-5.48-12.2-11.1-14.67-5.65-24.47,5.99-36.83,15.74-16.71,28.81-36.2,41.09-55.72,2.75-4.37-.1-16.79-4.52-20.35-20.35-16.38-20.46-31.23,1.62-44.72,22.54-13.77,30.3-30.02,24.48-54.47-2.24-9.41-8.02-17.96-10.35-27.35-2.86-11.53-1.94-22.33,14.97-18.1,29.78,7.44,38.95-1.15,34.17-32.12-.63-4.06.42-8.38.75-13.41,4.4.35,7.36.2,10.13.86,33.33,7.87,49.33,3.33,63.83-18.28,14.77-22.01,12.68-36.59-8.31-65.31-8.81-12.05-16.62-24.82-24.89-37.27,1.85-1.57,3.69-3.14,5.54-4.7,12.37,9.32,24.45,19.05,37.18,27.83,14.04,9.68,27.64,14.21,41.86-1.67,22.63-25.27,26.63-62.26,54.1-84.28,1.59-1.28,1.97-4.01,3.03-6,6.36-11.9,14.31-23.24,18.69-35.83,4.17-11.99,5.02-25.22,6.61-38,1.26-10.12-2.58-24.26,2.83-29.82,14.88-15.3,34.19-26.18,50.31-40.42,14.31-12.64,30.92-15.15,48.46-18.87,7.46-1.59,14.05-14.02,18.23-22.86,6.99-14.79,11.97-30.56,17.33-46.08,5.3-15.33,12.34-30.55,14.39-46.37,2.41-18.52-.49-37.66.38-56.46.44-9.4,1.99-19.98,6.79-27.7,12.62-20.32,25.36-41.19,41.6-58.51,24.81-26.46,20.82-56.35,16.09-87.06-1.8-11.68-6.52-17.91-21.68-14.87Z" />
    <path class="cls-1" d="m2486.1,517.67c-12.91-24.05-6.61-40.83,19.62-51.85,4.36-1.83,8-6.36,10.96-10.39,15.07-20.46,13.26-43.62,4.62-64.65-7.56-18.4-4.61-32.84,3.5-49.25,6.2-12.55,8.65-26.9,13.96-39.96,6-14.74,10.03-32.45,20.82-42.6,18.88-17.77,41.93-31.26,63.92-45.48,8.51-5.5,19.29-8.93,13.09-21.44-5.64-11.36-12.87-24.22-29.04-19.04-50.68,16.24-101.1,33.26-151.62,50.02-5.6,1.86-11.13,3.91-16.7,5.88-1.05-1.83-2.1-3.66-3.15-5.49,20.47-27.46,67.56-27.77,76.26-73.83-34.11-4.65-67.35-8.51-100.33-13.92-19.6-3.21-38.72-9.19-58.19-13.31-12.14-2.57-24.55-5.73-36.8-5.59-23.22.27-47.04,6.76-69.48,3.32-33.81-5.18-39.64-5.81-57.7,19.86-41.36-7.45-52.26-5.55-94.8,15.87-3.21,1.62-7.46,2.91-10.8,2.24-49.73-9.92-97.15,5.32-145.31,12.75-17.04,2.63-34.44,3.44-51.2,7.17-6.14,1.36-16.29,10.06-15.52,13.2,7.56,31.03-13.76,26.32-31.54,27.63-22.04,1.63-44.13,4.11-65.35,26.28,19.26,3.06,32.93,5.23,53.44,8.5-11,10.82-16.42,20.18-24.19,22.97-17.45,6.26-36.05,9.36-54.22,13.56-16.99,3.92-34.04,7.6-57,12.7,9.43,10.37,12.87,17.6,18.11,19.33,30.57,10.07,41.88,39.47,60.65,60.74,10.92,12.37,17.88,11.45,30.26,6.33,11.45-4.73,24.04-9.53,36.11-9.47,75.53.35,128.47,53.87,129.24,129.11.28,27.29,2.97,28.12,28.91,18.38,10.08-3.78,25.49-6.05,33.3-1,35.76,23.08,31.34,75.77-6.41,94.42-27.34,13.51-33.74,27.16-25.41,56.66,15.86,56.19,45.72,104.76,83.63,148.41,5.36,6.17,16.66,9.44,25.42,9.87,13.13.64,23.44,2.25,28.7,16.26,1.85,4.92,6.99,8.61,12.47,15.01,9.59-22.81,23.15-42.16,25.01-62.57,2.63-28.92,15.68-49.89,29.84-73.68,14.73-24.76,36.2-36.32,58.87-44.85,31.92-12,55.37-29.9,69.64-60.85,1.85-4.01,10.37-6.74,15.9-6.91,14.54-.46,31.86,6.15,43.17.36,29.97-15.36,57.93-34.96,85.55-54.48,16.12-11.39,19.33-28.46,9.8-46.21Z" />
    <path class="cls-1" d="m5224.01,2741.83c-4.03-14.77-6.69-30.31-13.3-43.89-13.56-27.85-28.41-55.19-44.66-81.55-6.45-10.46-16.63-21.26-27.62-25.63-14.46-5.76-18.72-13.1-20.14-27.87-2.07-21.56-7.39-42.91-12.74-63.99-1.31-5.16-8.25-12.8-12.35-12.64-13.54.52-13.25-7.47-15.51-16.91-4.1-17.05-10.46-33.55-15.88-50.28-2.97.44-5.95.89-8.92,1.33-6.38,43.68-12.75,87.36-20,137.01-31.57-22.57-56.76-39.7-80.54-58.62-3.14-2.5-.16-14.41,1.95-21.38,3.44-11.38,8.49-22.27,13.67-35.41-29.46-2.58-51.74-9.11-77.88.15-24.63,8.73-45.76,29.63-35.8,62.29-15.39-11.38-25.48-20.44-37.1-26.66-4.93-2.64-15.71-1.89-19.26,1.76-14.13,14.56-26.38,30.93-39.52,46.47-2.67,3.16-7.25,8.59-9.16,7.91-22.02-7.79-17.04,10.1-18.84,20-2.47,13.56-3.98,25.22-19.89,32.01-35.46,15.15-69.95,32.62-104.41,50-5.22,2.63-11.68,9.96-11.52,14.93,1.08,34.62.16,69.91,6.84,103.6,8.12,41.02,27.76,79.45,25.7,123.12-.47,9.96,6.49,25.74,14.3,29.2,9.26,4.1,23.31-1.49,34.98-4.2,16.32-3.79,32.24-9.29,48.55-13.09,9.34-2.18,23.33,1.22,28.02-4.17,29.31-33.72,70.49-35.1,109.17-42.62,33.91-6.6,51.78,3.76,67.31,34.14,4.23,8.27,9.87,15.83,15.46,24.66,11.81-8.77,21.26-15.78,32.7-24.27,5.51,17.05,5.98,37.01,16.08,45.42,14.95,12.45,12.53,31.16,22.3,42,14.37,15.93,34.25,27.83,53.73,37.54,4.79,2.39,17.11-10.32,27.42-17.04,6.65,7.05,14.74,15.63,24.12,25.58,13.5-15.34,22.9-35.48,47.7-33.11,2.04.2,5.73-11.69,7.85-18.22,9.21-28.47,12.58-60.83,28.75-84.48,15.16-22.18,21.05-42.71,23.13-67.96,1.54-18.7,7.36-36.55-4.14-54.07-1.74-2.65.41-7.57-.54-11.08Z" />
    <path class="cls-1" d="m1775.71,564.52c-8.45-7.05-19.17-11.46-29.1-16.62-20.6-10.7-43.5-18.33-61.51-32.31-27.23-21.15-53.25-27.26-85.68-13.28-29.48,12.7-32.81,8.3-30.99-22.74.51-8.72-4.88-22.29-11.58-25.68-7.02-3.55-21.71-.63-27.94,5.06-8.79,8.03-13.3,21-18.78,32.28-2.58,5.3-3.14,11.58-4.61,17.42-3.02-.57-6.03-1.14-9.05-1.7,3.16-16.82,6.31-33.63,9.46-50.41-21.3-3.33-51.79,5.08-64.1,17.06-16.82,16.37-16.14,67.84,2.91,76.23,21.53,9.49,44.87,15.31,67.88,20.85,15.26,3.67,31.29,5.17,47.02,5.57,13.74.35,27.54-2.19,41.32-3.45.77-2.64,1.53-5.28,2.3-7.92,4.11,6.71,7.29,14.29,12.55,19.92,7.45,7.96,15.56,19.05,24.92,20.84,42.23,8.07,33.27,21.79,32.17,49.22-.39,9.59-10.05,18.81-15.95,29.02,2.39,4.8,5.3,10.65,10.06,20.19-14.91-2.3-26.43-5.05-38.04-5.51-6.69-.26-16.51,1.14-19.47,5.5-3.07,4.52-1.4,14.37,1.42,20.38,7.3,15.52,21.02,20.92,35.45,11.73,17.81-11.34,29.54-3.79,41.43,8.28,24.72,25.08,52.81,44.68,87.12,54.5,9.76,2.79,19.28,6.42,28.91,9.66,1.23-2.32,2.47-4.65,3.7-6.97-13.72-12.32-27.45-24.64-41.17-36.96,1.42-2.11,2.84-4.23,4.26-6.34,10.67,5.83,20.99,12.44,32.12,17.2,7.19,3.08,21.47,6.35,22.38,4.52,4.23-8.6,8.63-20.16,5.93-28.34-3.21-9.71-13.2-17.44-21-25.29-10-10.08-22.01-18.45-30.65-29.5-4.45-5.7-3.49-15.64-4.97-23.66,9.01,2.78,20.35,3.09,26.49,8.9,9.61,9.08,14.68,22.83,23.75,32.7,4.28,4.66,18.01,8.53,19.55,6.56,13.38-17.06,24.97-35.53,39.37-56.97-36.96-13.29-67.79-23.7-98.06-35.53-16.38-6.4-20.27-23.24-8.1-35.57,11.24-11.38,7.67-20.96-1.71-28.79Z" />
    <path class="cls-1" d="m1424.24,209.48c22.45,8.18,46.18,12.84,69.4,18.92,7.13,1.87,14.19,3.95,21.29,5.94-.22,2.52-.44,5.04-.67,7.56-10.52,1.1-21.24,1.3-31.47,3.65-6.04,1.39-11.28,6.21-16.88,9.48,3.27,5.32,5.78,11.34,9.97,15.78,6.5,6.88,14.15,12.68,21.96,19.5q-45.78,23.89-32.38,59.67c-8.66,6.3-17.27,12.57-25.89,18.84.7,2.56,1.4,5.12,2.1,7.68,21.95-1.18,43.91-2.36,65.86-3.54,10.51,1.09,20.77,2.86,30.05.61,10.19-2.47,19.34-8.94,27.82,2.92,1.48,2.07,5.65,4.14,7.8,3.51,12.73-3.71,25.23-8.22,37.81-12.46-3.87-8.86-7.75-17.72-14.04-32.1,16.09-7.5,33.05-14.32,48.72-23.37,4.97-2.87,10.35-12.84,8.93-17.56-5.18-17.22,3.65-21.71,17.37-24.07,22.87-3.94,40.37-15.88,58.56-30.77,20.18-16.51,46.55-23.54,59.83-50.92,3.76-7.76,28.89-5.49,44.29-7.16,11.92-1.29,26.03.48,26.4-16.99.34-16.61-12.92-17.56-25.19-19.41-84.97-12.78-169.34-8.91-253.6,7.11-50.35,9.57-99.71,26.46-152.38,21.57-6.36-.59-19.49,8.96-19.21,13.11.55,8.03,6.79,20.01,13.55,22.48Z" />
    <path class="cls-1" d="m940.3,533.9c13.41-8.65,24.71-20.59,39.24-33,.81,8.12,1.66,13.77,1.89,19.44,1.68,41.1,29.85,72.58,70.21,78.76,4.16.64,9.73,2.26,11.73,5.32,17.17,26.35,38.32,18.44,58.66,6.34,23.34-13.88,46.25-16.43,70.59-3.69,3.94,2.06,8.44,3.29,12.83,4.22,16.42,3.48,35.89-7.57,41.43-23.79,6.09-17.81-9-22.08-19.57-27.74-18.03-9.66-32.34-21.27-36.52-42.85-1.36-6.99-5.41-14.62-10.59-19.42-6.49-6.01-16.32-13.91-23-12.56-6,1.22-9.69,13.85-16.54,24.92.55.25-3.25-.62-5.95-2.84-25.36-20.86-53.86-30.51-87.13-31.3-13.33-.32-26.59-11.39-39.52-18.27-7.08-3.76-12.81-10.73-20.17-13.17-15.2-5.05-31.3-7.36-46.64-12.07-16.86-5.17-39.41,1.43-37,12.65,3.99,18.58-9.77,24.77-17.9,35.79-6.17,8.36-14.25,20.52-12.25,28.74,6.33,26.02,43.42,39.2,66.2,24.51Z" />
    <path class="cls-1" d="m3020.36,270.85c15.44,11.07,18.8,25.27,16.33,43.35-4,29.26,12.26,50.92,31.92,79.1,14.25-36.44,26.29-67.25,38.34-98.05,2.66.71,5.31,1.42,7.97,2.13.34,7.1-.78,14.69,1.38,21.19,3.24,9.77,7.09,20.49,14.08,27.35,3.23,3.17,20.2-.3,21.04-3.42,2.69-9.98,3.49-22.22,0-31.75-7.2-19.68-18.39-37.86-26.36-57.31-2.96-7.23-1.49-16.28-2.05-24.49q23.75,21.2,43.22-.37c6.01-6.71,13.06-13.17,16.7-21.09,2.6-5.65,3.16-15.84-.25-20.07-21.35-26.48-63.14-29.82-87.81-6.74-14.22,13.3-27.56,13.1-42.67,3.68-5.71-3.56-11.32-7.28-21.69-13.97-8.26,19.9-15.93,36.75-22.28,54.08-6.55,17.86-4.35,34.58,12.13,46.4Z" />
    <path class="cls-1" d="m5130.33,2305.44c-34.59-40.58-84.21-56.64-129.97-78.55-17.04-8.16-35.64-8.83-43.49,15.81-1.61,5.06-7.39,8.8-16.72,19.32-7.13-16.41-14.58-27.88-16.9-40.3-2.89-15.54-8.82-21.52-24.19-16.62-6.9,2.2-13.91,4.06-25.08,7.29,10.78,15.96,17,33.17,29.25,41.55,22.02,15.07,48.03,24.2,71.56,37.28,6.28,3.49,12.08,11.72,13.8,18.81,5.84,24.14,15.37,44.2,41.01,52.84,17.21,5.8,34.09,14.66,46.48-8.18,1.72-3.16,9.86-6.18,12.85-4.74,13.08,6.3,30.72,11.28,36.82,22.24,13.03,23.39,33.84,26.41,59.29,34.03-5.33-25.33-24.46-35-36.83-49.71-5.53-6.58-12.71-18.59-10.18-23.79,6.48-13.33-.96-19.39-7.7-27.29Z" />
    <path class="cls-1" d="m4632.56,2080.62c-11.41,16.61-27.34,30.35-42.44,44.12-9.62,8.77-21.2,15.38-36.99,26.58-31.55-1.01-39.74,10.9-26.42,50.17,2.65,7.82,5.68,15.56,9.21,23.02,9.1,19.18,66.81,44.74,86.88,38.75.72-.21,1.42-.49,2.12-.78,21.88-9.28,39.5-44.84,35.36-69.38-.94-5.59,1.74-11.82,2.94-17.72,1.9-9.32,7.7-19.82,5.16-27.66-5.32-16.48-11.07-30.1,4.67-44.93,8.72-8.21-1.92-40.51-13.35-42.81-15.64-3.14-19.61,9.69-27.13,20.65Z" />
    <path class="cls-1" d="m3609.36,2442.05c-5.02,9.46-8.58,20.17-15.36,28.12-12.74,14.94-25.16,32.19-41.66,41.43-27.18,15.23-34.98,31.32-24.32,61.43,3.81,10.77,6.26,29.18.34,35.05-30.74,30.48-15.28,61.39-3.9,91.75,7.67,20.46,25,22.36,41.31,8.15,23.03-20.08,24.88-46.37,24.64-74.22-.11-12.18,2.85-24.68,6.22-36.53,4.02-14.12,10.59-27.51,14.9-41.56,4.17-13.57,4.35-28.9,10.73-41.14,13.94-26.77-1.38-47.9-6.46-71.11-2.15-.46-4.3-.91-6.44-1.37Z" />
    <path class="cls-1" d="m2747.55,986.44c12.84,7.66,25.67,15.33,38.51,22.99-.82,3.13-1.63,6.27-2.45,9.4-9.17,4.13-18.34,8.26-22.81,10.28-9.37,31.3-17.71,59.16-26.28,87.79,4.13,0,6.38.43,8.42-.06,30.41-7.4,62.74-10.86,90.32-24.17,13.19-6.37,17.35-31.46,25.6-48.07-3.9-1.5-8.38-2.25-11.58-4.69-5.05-3.84-9.89-8.34-13.62-13.44-4.13-5.64-5.97-13.05-10.43-18.33-23.03-27.29-52.07-52.34-26.77-96.27h-35.27c7.08-9.86,12.37-17.23,18.06-25.17-24.64-9.51-45.72,4.23-46.79,32.59-.89,23.58,5.23,47.43,8.24,71.16,2.28-1.34,4.57-2.68,6.85-4.01Z" />
    <path class="cls-1" d="m3641.09,511.61c26.78,20.53,57.07,35.12,99.75,31.17-12.92-9.26-20.65-15.69-29.2-20.72-14.8-8.7-18.49-21.37-8.58-34.01,17.47-22.27,34.3-46.8,56.72-63.04,35.33-25.59,75.53-43.75,120.21-48.85,6.5-.74,15.02-2.53,18.45-7.01,5.5-7.2,9.35-16.88,10.25-25.87.43-4.29-7.9-13.67-11.59-13.33-8.61.79-17,5.66-25.11,9.63-8.28,4.06-15.63,11.12-24.26,13.15-19.74,4.64-40.81,4.6-59.89,10.88-28.88,9.51-59.76,17.38-78.18,45.47-17.21,26.26-31.71,54.26-61.11,70.72-10.4,5.82-21.42,21.12-7.47,31.82Z" />
    <path class="cls-1" d="m1329.86,334.42c-3.39,30.94,6.34,48.44,28.36,45.43,26.19-3.57,33.46,9.89,36.83,30.37,3.55,21.55,16.89,23.82,34.71,19.06,5.32-1.42,11.22-3.16,16.39-2.2,12.48,2.32,24.53,7.86,37.04,8.95,16.36,1.43,33.68-3.29,49.36.16,41.76,9.18,40.59-.72,55.7-34.53-26.26-12.2-52.24-18.64-78.32-.44-11.3,7.89-20.02,11.38-30.66-1.73-3.53-4.35-13.84-5.04-20.77-4.4-14.84,1.36-24.55-2.68-29.34-17.8-4.43-13.96-13.6-18.14-29.43-17.28-13.34.73-27.14-7.12-41.34-11.35,3.37-7.17,5.8-12.33,9-19.14-26.44-16.24-51.95-31.91-79.89-49.08-3,38.98,5.35,48.55,42.36,53.98Z" />
    <path class="cls-1" d="m4474.3,2297.13c11.33-12.73,12.79-26.03,2.27-40.78-11.72-16.42-21.07-34.6-33.37-50.54-16.28-21.1-34.26-40.9-51.83-60.99-11.25-12.87-24.48-24.24-34.29-38.07-14.01-19.75-31.97-23.88-56.33-21.01,2.05,6.01,2.18,8.7,3.58,10.17,49.03,51.39,78.15,115.22,111.26,176.63,5.15,9.54,14.14,17.53,22.71,24.59,11.36,9.36,24.34,13.09,35.99,0Z" />
    <path class="cls-1" d="m4907.18,1445.28c-7.14.35-14.64,6.85-20.78,11.94-19.97,16.54-34.06,43.38-36.93,68.18-.33,2.86-.79,5.71-2.28,16.37,11.8-6.53,22.67-8.87,25.09-14.71,4.03-9.74,1.93-21.84,3.85-32.69,1.03-5.8,5.07-11.07,9.54-20.26,4.24,15.42,6.51,23.69,9.54,34.68,12.25-10.87,21.13-18.74,30-26.62,1.02,1.57,2.04,3.13,3.06,4.7,6.62-1.54,17.25-1.11,19.16-4.98,7.61-15.41,19.32-15.37,33.63-14.67,24.69,1.21,40.81-14.26,42.71-39.32.85-11.24.03-22.63,1.27-33.8.7-6.28,2.24-14.49,6.54-17.99,18.76-15.28,11.25-32.38,4.35-48.96-1.74-4.17-9.45-8.54-13.89-8.05-3.55.39-7.78,7.61-9.11,12.5-2.54,9.32-.19,21.29-5.2,28.4-25.96,36.86-44.88,82.57-100.54,85.28Z" />
    <path class="cls-1" d="m2598.16,683.8c-5.45-5.2-15.99-6.74-24.26-6.94-11.94-.28-24.37,4.81-35.8,2.89-16.17-2.72-30.83-6.72-39.56,14.69-5.43-10.5-9.28-17.92-14.47-27.97-12.97,10.95-23.58,19.92-33.53,28.32,10.7,17.32,22.73,30.37,27.06,45.6,4.24,14.94,11.76,18,24.67,20.79,35.08,7.59,60.09-13.56,87.9-27.84,35.25-18.11,36.65-22.2,7.99-49.54Z" />
    <path class="cls-1" d="m1001.86,403.54c-2.99,3.59-6.88,9.17-5.9,12.56,1.04,3.57,7.41,7.89,11.44,7.88,13.96-.03,27.92-1.8,41.92-2.91,1.95,22.33,14.98,31.2,37.04,21.58,20.24-8.83,39.31-16.81,62.5-11.92,18.36,3.87,17.58-11.97,18.15-23.76.53-11.06,6.21-26.44-14.5-24.96-14.93,1.06-19.89-6.75-21.38-19.84-.5-4.41-3.41-8.55-5.55-13.61-21.56,20.64-21.92,25.54-4.11,51.56-28.03,13.65-44.03-6.2-61.51-18.62-25.96-18.44-27.87-18.44-43.93,8.26-3.28,5.45-9.97,8.74-14.17,13.8Z" />
    <path class="cls-1" d="m1373.61,302.54c8.01,7.49,19.8,15.91,29.63,15.35,15.05-.86,30.5-7.31,44.33-14.28,20.1-10.13,19.83-16.91,3.88-32.93-4.12-4.14-5.61-11.08-7.76-16.93-1.73-4.72-1.02-11.9-4.19-14.28-19.31-14.52-39.41-27.99-63.35-44.66-8.98,23.89-18.07,48.08-27.42,72.98,12.64,3.73,22.54,6.65,32.13,9.47-3.26,10.59-9.85,22.85-7.25,25.28Z" />
    <path class="cls-1" d="m5532.38,3041.36c-.52-.28-1.46.2-2.21.31-1.17.87-3.04,1.55-3.37,2.67-10.93,37.31-21.52,73.11-69.25,81.5-9.92,1.74-16.1,24.83-24,38.07,11.12,6.08,21.68,14.49,33.57,17.4,7.4,1.81,20.3-2.04,24.76-7.9,19.05-24.98,36.63-51.17,53.32-77.81,22.15-35.36,21.58-35.72-12.82-54.25Z" />
    <path class="cls-1" d="m4287.36,245.81c2.61,4.16,3.89,7.98,6.53,10.14,18.51,15.21,36.99,30.51,56.27,44.71,3.75,2.76,11.61,2.62,16.44.8,18.3-6.9,38.57-47.84,33.51-66.07-.58-2.09-1.75-4.22-3.21-5.84-6.83-7.62-54.82-14.88-64.34-9.59-14.38,8-28.57,16.32-45.2,25.85Z" />
    <path class="cls-1" d="m1300.48,457.27c-8.19-1.27-16.4-2.32-24.61-3.46-1.32-1.71-2.64-3.41-3.96-5.12-15.09,11.02-31.01,21.15-44.59,33.79-2.76,2.57.79,17.3,5.68,21.68,12.69,11.37,27.41,20.64,42.05,29.54,4.52,2.75,13.21,4.27,16.85,1.77,10.11-6.93,25.28-15.57,26.23-24.8,1.72-16.6-5.3-34.16-9.29-51.18-.31-1.34-5.42-1.78-8.35-2.23Z" />
    <path class="cls-1" d="m4690.09,2189.94c-2.23,34.34-6.08,68.58-9.98,110.29,12.37-5.05,22.08-6,25.11-11,4.18-6.89,3.3-16.84,4.59-25.48,5.94,6.91,7.85,13.26,9.88,19.57,5.2,16.16,14.09,12.85,22.96,3.73,10.75-11.06,3.53-20.04-5.97-25.59-16.6-9.7-17.56-18.55-2.06-29.97,3.65-2.69,5.7-7.56,8.89-11.97-3.66-1.92-5.48-3.52-7.5-3.83-13.7-2.11-33.6-.66-29.85-20.83,3.36-18.07,22.4-12.7,36.33-11.84,1.49.09,3.07,1.04,4.41.72,11.78-2.75,23.51-5.69,35.25-8.58-25.44-2.8-49.01-2.33-72.55-2.99-13.08-.36-18.62,3.92-19.52,17.76Z" />
    <path class="cls-1" d="m3562.75,192.49c0,11.16-1.85,18.52.51,24.1,2.43,5.74,8.84,13.72,13.72,13.88,37.66,1.22,62.37-30.22,52.96-68.06-4.64,2.65-10.48,4.02-12.78,7.64-12.18,19.2-25,17.42-42.93,6.41-23.53-14.45-69.54-2.76-88.44,19.42,25.14,21.6,50.74,14.01,76.96-3.39Z" />
    <path class="cls-1" d="m915.99,401.83c21.81-3.96,42.66-13.24,65.02-20.57-.71,7.45-1.35,14.19-1.99,20.93,14-13.26,26.21-27.32,34-43.51,6.46-13.44-10.56-40.63-20.91-36.56-16.11,6.32-31.31,15.44-46.01,24.77-15.33,9.73-29.62,21.12-44.36,31.78-2.04-1.09-4.09-2.18-6.13-3.27.46,13.65,1.66,29.83,20.38,26.44Z" />
    <path class="cls-1" d="m1232.96,411.89c13.1,1.15,25.89,5.98,38.98,6.95,7.79.58,19.76-.52,23.12-5.45,9.41-13.79,7.9-50.27.52-53.93-.65-.33-1.43-.47-2.16-.56-17.4-1.98-36.21-13.18-47.85,12.55-3.43,7.59-16.48,10.83-25.56,16.33-6.22-11.58-10.16-21.48-16.49-29.49-2.77-3.51-10.49-4.34-15.81-3.99-2.13.14-5.55,6.82-5.42,10.41.59,15.66,34.89,45.8,50.66,47.18Z" />
    <path class="cls-1" d="m5595.96,2982.77c-11.21-10.32-19.19-25.99-24.09-40.87-5.83-17.73-19.76-32.64-38.51-32.87,7.31,34.9,59.93,59.41,26.41,102.91,4.26,11.88,8.08,23.75,12.83,35.23,2.24,5.43,6.25,10.14,9.46,15.18,4.52-4.23,9.98-7.82,13.39-12.81,9.65-14.15,18.64-28.76,27.53-43.41,4.37-7.2,7.96-14.87,10.82-20.28-15.7-.85-31.28,2.93-37.83-3.09Z" />
    <path class="cls-1" d="m1570.54,742.17c-8.43-8.04-20.25-12.6-30.83-18.29-43.14-23.2-42.15-22.75-59.69,21.22-6.55,16.43-.29,23.78,11.68,30.86,13.27,7.85,20.76.49,27.2-10.43,3.24-5.49,7.58-10.33,12.16-16.44,7.32,7.75,12.01,16.88,18.73,18.77,8.42,2.37,18.51-1.21,27.88-2.23-2.19-8.01-1.96-18.56-7.11-23.47Z" />
    <path class="cls-1" d="m5014.43,415.57c19.6.3,39.56-5.35,58.8-10.56,5.84-1.58,13.95-10.27,13.62-15.2-.42-6.17-7.42-13.62-13.52-17.21-6.72-3.95-16.94-2.18-23.35-6.38-13.1-8.59-18.92-2.31-23.39,8.56-2.3-.39-3.97-.26-5.22-.94-13.51-7.31-27.66-10.74-38.65,2.53-4.21,5.08-6.4,19.19-3.48,21.48,10.31,8.07,23.16,17.54,35.18,17.72Z" />
    <path class="cls-1" d="m2653.61,1064.44c6.71,7,11.18,15.93,17.25,17.21,21.27,4.48,49.35-26.61,46.95-48.69-.75-6.93,1.57-15.56,5.49-21.38,9.19-13.63,4.74-32.64-8.8-29.64-16.13,3.57-30.95,16.99-43.93,28.8-4.74,4.32-6.6,19.85-2.83,24.07,16.07,17.99,1.12,22.35-14.14,29.63Z" />
    <path class="cls-1" d="m4292.81,234.86c19.91-16.24,40.25-26.08,47.85-41.99,3.57-7.47-14.83-34.43-27.85-38.73-20.12-6.65-58.06,25.82-53.72,43.87,3.06,12.73,19.62,22.21,33.72,36.85Z" />
    <path class="cls-1" d="m4609.47,2362.7c-2.12-4.29-3.09-10.31-6.53-12.59-23.04-15.27-41.36-43.39-76.39-27.71-5.1,2.28-14.01-3.66-21.06-6.09-6.35-2.19-12.56-4.77-22.06-8.43-4.46,5.35-14.12,12.29-13.09,16.74,1.75,7.56,9.18,17.75,16.09,19.51,36.25,9.21,73.03,16.36,109.77,23.49,3.96.77,8.82-3.17,13.27-4.93Z" />
    <path class="cls-1" d="m1067.82,326.91c5.26.84,9.98,7.25,14.96,7.26,10.33.01,23.79.88,30.19-4.94,7.67-6.98,9.32-20.58,13.57-31.32,2.68-1.86,5.36-3.73,8.03-5.59-14.17-6.24-28.41-17.58-42.51-17.41-16.84.21-33.57,10.26-53.17,17.03-3.15,23.69,1.99,30.66,28.92,34.97Z" />
    <path class="cls-1" d="m1353.38,508.59c5.97,3.06,19.01-6.49,28.28-11.56,5.1-2.79,9.57-7.43,13.15-12.13,8.18-10.71,15.64-21.97,23.39-33.01-13.42-2.81-26.78-7.65-40.27-8.03-34.21-.97-35.62,1.16-40.38,36.42,5.03,9.92,7.82,24.22,15.83,28.31Z" />
    <path class="cls-1" d="m1200.94,314.73c19.78-14.73,33.83-3.88,48.81,7.45,5.94,4.49,15,4.84,22.65,7.08,1.91-9,5.87-18.21,4.99-26.94-.57-5.68-7.43-14.22-12.75-15.33-21.46-4.48-42.19-8.13-56.1-28.34-2.3-3.34-13.55-1.54-20.28-.19-2.13.43-5.05,7.8-4.08,10.87,4.49,14.25,10.23,28.11,16.76,45.38Z" />
    <path class="cls-1" d="m5078,1119.12c-1.9-25.15-3-45.09-5.04-64.94-1.33-12.94-4-25.74-6.07-38.61-2.86-.33-5.73-.66-8.59-.99-4.97,20.27-13.91,40.5-14.07,60.81-.32,40.54,4.19,81.12,6.72,121.98.38-.03,6.59-.53,14.41-1.17-7.89-32.03-12.75-61.56,12.64-77.08Z" />
    <path class="cls-1" d="m1646.92,1768.99c-17.58-10-36.66-17.84-52.88-29.66-29.51-21.51-70.27-19.73-99.39,10.46,13.55,4.37,24.88,8.02,39.44,12.7-1.39-11.66-2.09-17.54-2.73-22.94,34.91-9.23,52.82,22.27,80.12,28.83,1.72.41,2.94,3.27,4.2,5.12,14.11,20.72,26.58,23.93,54.1,10.78-9.46-6.38-15.88-11.33-22.86-15.3Z" />
    <path class="cls-1" d="m4443.96,305.54c10.22-1.94,25.6,3,25.38-14.24-.19-15.43-1.59-31.94-21.77-37.19-8.27-2.15-15.82-7.04-24.67-11.13-10.51,23.29-21.55,47.74-33.06,73.23,19.76-3.9,36.92-7.39,54.13-10.66Z" />
    <path class="cls-1" d="m5019.71,1274.54c-5.64,2.08-9.85,10.29-12.58,16.61-.76,1.77,8.19,10.37,9.18,9.8,5.68-3.3,10.3-8.41,14.08-11.82,11.29,1.38,23.3,6.33,32.41,3.11,12.47-4.42,22.74-15.05,36.71-24.98-.82-2.78-3.01-10.18-5.87-19.84-37.5,16.44-39.59-19.53-55.05-36.03-2.41.71-4.82,1.41-7.23,2.12,1.06,7.06,1.27,14.38,3.33,21.13,5.32,17.39,6.54,31.97-14.99,39.9Z" />
    <path class="cls-1" d="m728.71,932.44c-6.61-7.28-18.07-10.16-27.31-15.05-2.07,3.19-4.15,6.38-6.22,9.57,7.66,10.56,16.74,20.39,22.65,31.85,9.31,18.06,22.7,37.06,23.14,55.93.67,28.64,16.54,42.62,36.6,62.37-8.75-27.88-21.05-50.46-21.72-73.38-.83-28.39-9.12-51.45-27.14-71.28Z" />
    <path class="cls-1" d="m3711.54,235.9c3.08-6.72,4.97-8.8,4.6-10.35-8.41-35.09-2.86-64.32,31.92-83.26,3.32-1.81,2.19-11.79,3.12-17.98-5.86-.71-13.11-3.98-17.34-1.69-17.64,9.57-34.77,20.26-51.2,31.79-4.76,3.34-6.59,10.86-9.77,16.46,2.73.28,5.45.56,8.18.84,9.62,20.25,19.24,40.49,30.5,64.18Z" />
    <path class="cls-1" d="m4706.57,1907.01c2.79,3.8,6.11,9.08,9.97,9.88,13.79,2.85,27.91,4.07,41.9,5.91,1.75-.8,3.5-1.6,5.25-2.4-7.37-6.12-13.94-15.81-22.27-17.69-25.78-5.82-28.35-10.7-17.66-35.36,4.95-11.43,6.63-24.73,7.29-37.32.23-4.3-8.5-13.37-10.84-12.66-6.16,1.87-15.2,7.43-15.75,12.35-2.9,25.73-16.29,52.21,2.11,77.3Z" />
    <path class="cls-1" d="m1756.12,1829.32c2.73-1.39,2.19-17.07.86-17.42-21.19-5.66-43.07-14.01-64.11-12.49-8.8.64-16.03,22.94-24.64,36.45,42.14,8.16,61.08,7.12,87.9-6.53Z" />
    <path class="cls-1" d="m5081.81,3047.99c11.63,21.21,20.78,39.52,31.95,56.5,1.66,2.52,15.72,1.32,19.12-2.52,14.01-15.81,16.17-35.07,13.31-49.69-21.91-1.46-40.17-2.68-64.38-4.29Z" />
    <path class="cls-1" d="m4087.88,2003.2c-21.67,26.66-20.87,47.17,3.84,76.19,38.54-26.43,36.69-53.49-3.84-76.19Z" />
    <path class="cls-1" d="m2008.73,604.48c11.86-8.29,24.98-17.02,31.82-28.94,2.17-3.79-13.37-18.22-21.48-27.16-2.77-3.05-7.63-4.21-13.11-7.05-6.77,11.8-14.63,20.91-17.12,31.31-1.93,8.09,1.52,18.38,5.22,26.48,1.61,3.53,12.05,7.2,14.67,5.37Z" />
    <path class="cls-1" d="m4735.09,2036.75c8.41,2.41,16.82,4.81,25.84,7.39.79,16.24,5.73,28.92,27.56,28.22-6.73-23.59,20.39-45.37.41-69.17-19.28,8.81-37.48,17.13-55.69,25.45.63,2.7,1.25,5.41,1.88,8.11Z" />
    <path class="cls-1" d="m3787.19,214.97c6.86-4.06,18.24-7.29,18.72-11.7,1.75-16.13.66-32.75-1.15-48.99-.51-4.59-7.14-8.5-10.96-12.73-3.42,4.02-7.3,7.74-10.15,12.14-4.77,7.35-10.19,14.68-12.92,22.83-3,8.94-5.36,19.17-3.77,28.09.72,4.03,11.66,6.23,20.23,10.36Z" />
    <path class="cls-1" d="m5175.24,414.54c3.39-1.43,7.89-6.11,7.66-8.95-.43-5.35-3.11-14.37-6.28-15.03-24.09-5.02-48.53-8.39-77.44-13,15.03,30.2,53.89,46.37,76.05,36.99Z" />
    <path class="cls-1" d="m1322.8,601.75c.85,2.79,5.43,3.65,10-3.12,1.08-1.6,1.91-3.37,2.43-5.3-10.39.93-13.28,5.64-12.43,8.42Z" />
    <path class="cls-1" d="m3853.06,169.89c-.78-15.66-.87-29.84-2.36-43.88-1.57-14.77-10-15.17-20.13-7.38-18.97,14.57-19.87,34.97-2.53,59.5,7.45-2.45,15.15-4.99,25.03-8.24Z" />
    <path class="cls-1" d="m5687.56,525.9c.54-4.76-17.14-11.59-29.12-19.16-11.12,7.04-19.51,12.36-27.91,17.67,8.79,4.27,17.3,11.12,26.45,12.15,11.16,1.26,28.47,7.79,30.58-10.66Z" />
    <path class="cls-1" d="m4756.79,1985.46c1.81-3.47-2.11-12.1-5.92-15.87-6.62-6.53-15.18-11.11-22.92-16.5-2.32,1.1-4.64,2.2-6.96,3.3,1.85,10.42,2.6,21.22,5.97,31.12,2.11,6.17,8.2,10.99,12.5,16.41,6-6.04,13.56-11.26,17.33-18.46Z" />
    <path class="cls-1" d="m5209.21,2292.45c8.86-8.34,14.5-15.85,3.35-24.91-19.64,13.53-37.29,25.69-54.88,37.8,19.55,12.12,27.33,9.9,51.53-12.89Z" />
    <path class="cls-1" d="m1346.92,388c-3.28.67-6.56,1.34-9.84,2.01-3.84,11.09-7.69,22.17-11.53,33.26,14.83,1.05,29.65,2.11,44.48,3.16-7.7-12.81-15.4-25.62-23.1-38.43Z" />
    <path class="cls-1" d="m2984.67,1362.98c3.74-16.69-3.16-29.92-22.93-36.22-1.73,17.24-16.41,33.87,3.52,47.02,3.09,2.04,18.28-5.7,19.42-10.8Z" />
    <path class="cls-1" d="m4734.6,1678.2c-30.39,14.69-35.76,36.82-16.5,65.17,6.26-24.75,11.38-44.96,16.5-65.17Z" />
    <path class="cls-1" d="m1665.37,630.97c-14.37-4.3-25.19-7.54-36.02-10.78-2.04,9.97-8.58,26.54-5.34,28.76,13.56,9.24,26.32,2.6,41.36-17.98Z" />
    <path class="cls-1" d="m3061.73,1395.74c-15.32,2.85-28.38,5.28-41.44,7.72-.23,2.61-.46,5.23-.69,7.84,15.5,5.62,31.01,11.25,50.44,18.3-3.34-13.61-5.37-21.91-8.3-33.85Z" />
    <path class="cls-1" d="m181.87,752.68c-12.94-3.25-26.58-3.7-39.96-5.21-.57,2.93-1.15,5.85-1.72,8.78,10.84,6.05,21.25,13.24,32.74,17.57,4.21,1.59,10.97-3.6,16.56-5.69-2.49-5.38-4.02-14.54-7.63-15.44Z" />
    <path class="cls-1" d="m414.37,928.41c-4.61,1.67-8.3,5.92-15.03,10.98,6.33,5.65,9.93,10.55,11.48,9.97,10.2-3.82,20.36-8.2,29.56-13.94,1.93-1.21-.15-8.85-.38-13.53-8.58,2.09-17.39,3.53-25.64,6.52Z" />
    <path class="cls-1" d="m1529.05,788.59c-4.52,3.04-7.24,10.25-8.41,16.07-.49,2.46,5.05,8.68,7.89,8.71,5.03.05,11.57-1.98,14.82-5.56,5.96-6.55,9.98-14.86,14.82-22.44-1.75-1.94-3.5-3.87-5.25-5.81-8.06,2.86-16.99,4.42-23.87,9.04Z" />
    <path class="cls-1" d="m3247.46,1469.15c.3-2.43.61-4.86.91-7.29-11.54-4.2-22.87-9.38-34.75-12.07-4.19-.95-9.77,4.2-14.71,6.57,3.16,4.27,5.94,11.79,9.55,12.21,12.85,1.5,25.98.59,39,.59Z" />
    <path class="cls-1" d="m5445.39,2661.8c-19.33-17.08-35.13-31.05-54.42-48.1,11.52,35.53,26.8,49.41,54.42,48.1Z" />
    <path class="cls-1" d="m1776.63,1824.22c5.84,2.6,13.34,8.86,17.2,7.11,10.84-4.92,20.17-13.15,30.1-20.08-.71-1.53-1.42-3.07-2.13-4.6-11.43,1.52-23.16,1.99-34.15,5.07-4.49,1.26-7.39,8.16-11.02,12.5Z" />
    <path class="cls-1" d="m3586.46,604.43c9.67-2.6,19.35-5.19,29.02-7.79-2.37-7.54-4.73-15.08-7.1-22.63-8.95,6.35-17.9,12.69-26.85,19.04,1.64,3.79,3.29,7.58,4.93,11.38Z" />
    <path class="cls-1" d="m4647.13,2020.27c26.58-9.41,44.01-33.86,40.15-53.88-14.81,19.88-27.48,36.88-40.15,53.88Z" />
    <path class="cls-1" d="m3014.35,999.91c2.03-18.08,3.51-31.23,4.98-44.38-2.82-.38-5.64-.75-8.46-1.13-19.01,17.48-19.35,23.22,3.48,45.51Z" />
    <path class="cls-1" d="m4758.96,2397.63c18.44-12.9,36.87-25.8,55.31-38.7-1.33-2.55-2.66-5.09-3.99-7.64-19.03,12.54-38.07,25.08-57.1,37.62,1.93,2.9,3.86,5.81,5.78,8.71Z" />
    <path class="cls-1" d="m3373.51,1448.55c-13.46,8.37-37.88-.64-41.55,23.28,1.65,2.75,3.3,5.51,4.95,8.26,13.85-7.83,27.71-15.67,41.56-23.5-1.66-2.68-3.31-5.36-4.97-8.04Z" />
    <path class="cls-1" d="m3724.85,219.49c3.41,2.62,6.83,5.24,10.24,7.85,6.61-6.52,13.21-13.03,19.82-19.55-5.62-5.1-11.24-10.2-16.86-15.3-4.4,9-8.8,18-13.2,26.99Z" />
    <path class="cls-1" d="m1605.02,769.66c4.79.8,9.61,2.35,14.37,2.2,4.35-.14,8.9-3.71,12.91-3.04,17.47,2.94,13.69-7.09,12.23-18.34-12.26,2.63-21.82,3.57-30.4,6.99-4.02,1.6-6.13,7.97-9.11,12.18Z" />
    <path class="cls-1" d="m4832.03,2189.25c-1.35-12.54-2.71-25.08-4.06-37.61-3.88.26-7.76.53-11.63.79.61,12.58,1.21,25.15,1.82,37.73,4.63-.3,9.25-.6,13.88-.9Z" />
    <path class="cls-1" d="m1176.89,340.59c.85-10.16,1.7-20.32,2.55-30.48-5.12-.36-10.24-.71-15.36-1.07-.8,9.44-2.21,18.92-1.7,28.29.07,1.35,9.44,2.19,14.51,3.26Z" />
    <path class="cls-1" d="m1637.48,1676.45c.21-14.96,6.8-31.34-20.33-38.42,6.3,15.47-8.62,36.53,20.33,38.42Z" />
    <path class="cls-1" d="m1833.56,1122.4c-1.47,2.57-2.94,5.13-4.41,7.7,11.56,6.55,23.12,13.09,34.67,19.64,1.14-2.17,2.29-4.35,3.44-6.52-8.96-10.97-16.55-24.38-33.69-20.82Z" />
    <path class="cls-1" d="m1602.77,1824.36c11.48,6.06,22.96,12.13,34.44,18.19,1.83-3.73,3.67-7.46,5.5-11.19-11.51-5.9-23.02-11.8-34.53-17.7-1.8,3.56-3.61,7.13-5.41,10.69Z" />
    <path class="cls-1" d="m1600.19,1692.73c8.17,2.92,10.8,23.39,23.18,10.45-3.86-10.95-7.07-20.03-13.21-37.44-4.43,12-7.2,19.49-9.97,26.99Z" />
    <path class="cls-1" d="m4784.51,1981.97v-47.34c-18.48,5.21-17.67,26.59,0,47.34Z" />
    <path class="cls-1" d="m1891.07,1225.52c2.6-.6,5.2-1.21,7.8-1.81-2.16-12.44-4.32-24.89-6.48-37.34-3.33.17-6.66.34-9.99.51v21.32l-.73-.82c.07.22.12.42.19.64.06.02.12.04.18.06,3.02,5.83,6.03,11.63,9.03,17.43Z" />
    <path class="cls-1" d="m1168.72,461.7c-.77,2.09-1.55,4.18-2.32,6.26,5.72,6.49,11.44,12.99,17.17,19.48,2.46-.63,4.92-1.26,7.37-1.89-.51-7.48,1.41-16.74-2.34-21.83-2.66-3.6-12.98-1.55-19.87-2.03Z" />
    <path class="cls-1" d="m1883.86,1974.93c-5.62,3.08-11.25,8.12-13.84,13.79-1.11,2.43,5.3,8.29,11.07,16.59,6.34-10.42,10.65-16.63,13.54-23.44.34-.79-8.87-7.98-10.78-6.94Z" />
    <path class="cls-1" d="m1930.24,1945.28c.13-4.5.26-8.99.38-13.49-9.36,5.83-18.73,11.67-28.78,17.93,17.95,22.07,18.97-5.36,28.39-4.44Z" />
</svg>
